<?xml version="1.0" encoding="UTF-8"?>
<svg width="841px" height="1189px" viewBox="0 0 841 1189" version="1.1" xmlns="http://www.w3.org/2000/svg" xmlns:xlink="http://www.w3.org/1999/xlink">
    <!-- Generator: Sketch 55.1 (78136) - https://sketchapp.com -->
    <title>Citylab Logo A0</title>
    <desc>Created with Sketch.</desc>
    <g id="Citylab-Logo-A0" stroke="none" stroke-width="1" fill="none" fill-rule="evenodd">
        <g id="citylab-logo" transform="translate(420.500000, 594.389335) rotate(-270.000000) translate(-420.500000, -594.389335) translate(0.000000, 510.000000)" fill-rule="nonzero">
            <path d="M264.142107,96.2272983 C258.721688,105.580992 251.79464,110.207076 238.141302,110.207076 C221.880043,110.207076 210.63578,98.9416507 210.63578,79.2285929 C210.63578,59.5155346 221.377197,48.552768 239.948109,48.552768 C252.597666,48.552768 260.327738,54.2860479 264.644954,63.8408757 L249.987833,70.9820943 C248.381784,65.4499486 245.871375,61.9310596 239.546596,61.9310596 C231.214254,61.9310596 226.095925,68.5684851 226.095925,79.630861 C226.095925,90.4940185 230.713319,96.8287848 239.948109,96.8287848 C244.666837,96.8287848 248.884631,94.1144324 250.991615,88.6838115 L264.142107,96.2272983 Z" id="Fill-1" fill="#2F2FA2"></path>
            <path d="M272.205154,109.436398 L286.877266,109.436398 L286.877266,63.1072122 L272.205154,63.1072122 L272.205154,109.436398 Z M279.542154,40.8459795 C284.696556,40.8459795 288.563303,43.5541493 288.563303,49.1710235 C288.563303,54.5854535 284.696556,57.3929356 279.542154,57.3929356 C274.784244,57.3929356 270.817431,54.5854535 270.817431,49.1710235 C270.817431,43.5541493 274.784244,40.8459795 279.542154,40.8459795 L279.542154,40.8459795 Z" id="Fill-3" fill="#2F2FA2"></path>
            <path d="M331.770642,107.083193 C327.557408,109.201601 322.543927,110.207076 316.52775,110.207076 C307.100496,110.207076 300.68324,105.874319 300.68324,94.5914972 L300.68324,73.9389435 L293.96422,73.9389435 L293.96422,62.4508047 L300.782554,62.4508047 L300.782554,52.5783352 L315.624368,50.8648045 L315.624368,62.4508047 L329.364171,62.4508047 L329.364171,73.9389435 L315.525054,73.9389435 L315.525054,91.1644359 C315.525054,96.0018499 317.431131,97.5139018 321.040838,97.5139018 C323.947702,97.5139018 326.556622,96.4048079 329.262947,94.4917171 L331.770642,107.083193 Z" id="Fill-5" fill="#2F2FA2"></path>
            <path d="M355.837148,82.2644638 C358.353539,91.3754701 358.857969,97.448189 358.857969,97.448189 L359.260744,97.448189 C359.260744,97.448189 359.763255,91.2732942 362.482952,82.2644638 L368.526512,62.4249874 L384.236697,62.4249874 L365.404039,113.44161 C359.966562,128.118311 353.420491,130.244727 343.349171,130.244727 C340.529738,130.244727 337.205877,129.737703 334.587832,129.132359 L336.904753,115.770449 C338.615593,116.882818 340.83278,117.490089 343.048048,117.490089 C347.075808,117.490089 349.693853,115.970946 351.304957,111.822219 L334.085321,62.4249874 L350.399671,62.4249874 L355.837148,82.2644638 Z" id="Fill-6" fill="#2F2FA2"></path>
            <polygon id="Fill-7" fill="#2F2FA2" points="406.966788 50.0941257 406.966788 96.338346 428.987156 96.338346 428.987156 109.436398 391.952294 109.436398 391.952294 50.0941257"></polygon>
            <path d="M456.68752,85.7597407 L469.920991,85.7597407 L468.304807,81.2274234 C464.768441,71.3530351 463.556303,63.8963945 463.556303,63.8963945 L463.152257,63.8963945 C463.152257,63.8963945 461.638046,71.4528152 458.303704,81.1257245 L456.68752,85.7597407 Z M474.365497,98.3531359 L452.443113,98.3531359 L448.706648,109.436398 L432.844954,109.436398 L454.363293,50.0941257 L472.851287,50.0941257 L494.569725,109.436398 L478.305908,109.436398 L474.365497,98.3531359 Z" id="Fill-8" fill="#2F2FA2"></path>
            <path d="M518.207288,96.6415234 L527.700338,96.6415234 C532.145817,96.6415234 534.771555,95.43265 534.771555,90.8984138 C534.771555,87.1700935 532.145817,85.3567828 527.700338,85.3567828 L518.207288,85.3567828 L518.207288,96.6415234 Z M525.782493,74.4749997 C529.922117,74.4749997 532.549777,72.9648668 532.549777,68.8335886 C532.549777,64.4010513 530.024068,62.8889996 525.478561,62.8889996 L518.207288,62.8889996 L518.207288,74.4749997 L525.782493,74.4749997 Z M536.993332,79.2107149 C545.880443,80.5212876 550.122018,86.2643976 550.122018,93.3180803 C550.122018,102.989071 543.558637,109.436398 529.014169,109.436398 L503.056881,109.436398 L503.056881,50.0941257 L529.216148,50.0941257 C541.234908,50.0941257 547.598233,55.7374556 547.598233,65.0054882 C547.598233,72.36043 543.456685,77.0942263 536.993332,78.8077569 L536.993332,79.2107149 Z" id="Fill-9" fill="#2F2FA2"></path>
            <path d="M609.437078,74.4749997 C613.545086,74.4749997 617.151279,72.9648668 617.151279,68.0276727 C617.151279,64.2993524 615.046712,62.8889996 611.140957,62.8889996 L604.32735,62.8889996 L602.32391,74.4749997 L609.437078,74.4749997 Z M598.416247,96.6415234 L607.834326,96.6415234 C612.541458,96.6415234 615.848089,94.8262943 615.848089,90.192278 C615.848089,87.1700935 614.245336,85.3567828 609.837766,85.3567828 L600.419687,85.3567828 L598.416247,96.6415234 Z M618.954376,79.1109348 C627.569171,80.4215075 630.675459,85.8614396 630.675459,91.6026308 C630.675459,103.693288 621.158161,109.436398 606.73148,109.436398 L580.984404,109.436398 L591.304986,50.0941257 L615.748871,50.0941257 C627.870642,50.0941257 632.678899,55.6357568 632.678899,63.3936564 C632.678899,72.3585111 626.468233,77.700582 619.055502,78.706058 L618.954376,79.1109348 Z" id="Fill-10" fill="#2F2FA2"></path>
            <path d="M668.863069,80.5758743 C668.964732,79.9752804 669.064477,79.2736343 669.064477,78.4709359 C669.064477,75.1686231 667.955774,72.5660499 664.029279,72.5660499 C659.999204,72.5660499 657.584228,76.2706652 656.475525,80.5758743 L668.863069,80.5758743 Z M667.85603,92.9900534 L682.157907,96.3934185 C679.437943,105.802722 672.99289,110.207076 659.899459,110.207076 C646.504875,110.207076 638.851376,102.39745 638.851376,90.0843233 C638.851376,71.765258 651.137257,61.6543085 664.633503,61.6543085 C678.12975,61.6543085 684.373394,69.7632787 684.373394,78.4709359 C684.373394,82.1774578 683.667508,85.7791142 682.359315,88.3835941 L654.864262,88.3835941 C653.655815,94.4905847 656.172454,98.7957941 661.107907,98.7957941 C664.531841,98.7957941 666.84899,97.3925017 667.85603,92.9900534 L667.85603,92.9900534 Z" id="Fill-11" fill="#2F2FA2"></path>
            <path d="M725.595162,79.7479899 C718.942869,76.213152 709.869641,77.2247541 708.157132,87.0176784 L704.225272,109.436398 L689.002752,109.436398 L697.16789,62.7834602 L710.474396,62.7834602 L710.172978,75.6092679 C713.396413,66.0144329 721.158381,59.9563591 729.123853,62.0776466 L725.595162,79.7479899 Z" id="Fill-12" fill="#2F2FA2"></path>
            <path d="M746.200838,93.8816662 C745.793988,96.0984366 745.997413,98.0119609 749.048782,98.0119609 C749.963224,98.0119609 750.879603,97.8123555 752.100151,97.5091085 L749.659056,108.896207 C747.117217,109.702305 744.164655,110.207076 741.622816,110.207076 C732.36603,110.207076 728.704388,105.572011 730.231041,96.6012885 L739.99542,42.3873372 L755.356881,42.3873372 L746.200838,93.8816662 Z" id="Fill-13" fill="#2F2FA2"></path>
            <path d="M775.590414,40.0753006 C780.781718,40.0753006 784.676147,42.7939903 784.676147,48.4307657 C784.676147,53.8662277 780.781718,56.6865327 775.590414,56.6865327 C770.79654,56.6865327 766.805131,53.8662277 766.805131,48.4307657 C766.805131,42.7939903 770.79654,40.0753006 775.590414,40.0753006 L775.590414,40.0753006 Z M775.989745,93.1280943 C775.590414,95.3425418 775.79008,97.2540607 778.786964,97.2540607 C779.684509,97.2540607 780.583955,97.0546647 781.781948,96.7517359 L779.38406,108.126902 C776.889191,108.932156 773.99309,109.436398 771.498222,109.436398 C762.410588,109.436398 758.81851,104.80619 760.31505,95.8448667 L766.204233,62.4230063 L781.281833,62.4230063 L775.989745,93.1280943 Z" id="Fill-14" fill="#2F2FA2"></path>
            <path d="M835.121457,93.2424998 C834.71604,95.4414126 834.918749,97.3395216 837.959374,97.3395216 C838.870597,97.3395216 839.78375,97.141524 841,96.8407208 L838.567499,108.136089 C836.034611,108.935693 833.092443,109.436398 830.559554,109.436398 C821.335358,109.436398 817.686607,104.838671 819.207885,95.9402136 L821.740774,81.545426 C822.451218,77.3475017 821.640385,73.949182 816.978093,73.949182 C813.327412,73.949182 810.286786,77.1495044 808.968217,84.4449448 L804.609021,108.935693 L789.305505,108.935693 L797.516159,62.7528131 L810.894911,62.7528131 L811.09762,72.1500715 C814.037856,65.353432 818.192413,61.6543085 825.99765,61.6543085 C833.397471,61.6543085 838.059764,66.3529378 838.059764,73.4503809 C838.059764,75.0476864 837.959374,76.1480947 837.756666,77.3475017 L835.121457,93.2424998 Z" id="Fill-15" fill="#2F2FA2"></path>
            <polygon id="Fill-16" fill="#F64C72" points="91.8033861 118.684544 64.0394495 102.900479 64.5679557 32.348346 121.241569 0 148.13945 15.3461502 148.029505 86.3476717"></polygon>
            <polygon id="Fill-17" fill="#393A61" points="67.1256881 23.7379908 58.181205 28.8977522 57.9479371 60.2759228 26.2005669 78.5927885 25.7780079 135.639478 0 120.826959 0.523896617 50.1365029 56.7012927 17.7256137"></polygon>
            <polygon id="Fill-18" fill="#2F2FA2" points="58.3248923 67.8197394 58.0341361 107.04861 91.9512329 126.491887 115.733945 112.699725 115.699513 136.442055 59.9374417 168.77867 32.4055046 152.993797 32.9296309 82.438054"></polygon>
        </g>
    </g>
</svg>