<?xml version="1.0" encoding="UTF-8"?>
<svg width="841px" height="1189px" viewBox="0 0 841 1189" version="1.1" xmlns="http://www.w3.org/2000/svg" xmlns:xlink="http://www.w3.org/1999/xlink">
    <!-- Generator: Sketch 55 (78076) - https://sketchapp.com -->
    <title>town-a0-841-1189</title>
    <desc>Created with Sketch.</desc>
    <g id="town-a0-841-1189" stroke="none" stroke-width="1" fill="none" fill-rule="evenodd">
        <g id="town" transform="translate(13.000000, 31.000000)">
            <g id="map" transform="translate(0.000000, 0.071858)">
                <g id="Group" transform="translate(511.676434, 409.877125)" stroke-linejoin="round" stroke-width="0.5">
                    <path d="M0.125361003,142.647457 L45.3210954,108.071309 C56.7749184,99.3087761 78.2081996,90.7299782 107.22007,81.5847147 C120.948612,77.2571364 138.682729,73.8885943 159.799271,71.9849382 C188.072034,69.4361488 230.582222,77.2643643 283.304541,65.7107008 C353.280291,50.3760895 353.280291,50.3760895 488.157048,0.0280262362" id="Path" stroke="#6C6974"></path>
                    <path d="M0.125361003,142.647457 L45.3210954,108.071309 C56.7749184,99.3087761 78.2081996,90.7299782 107.22007,81.5847147 C120.948612,77.2571364 138.682729,73.8885943 159.799271,71.9849382 C188.072034,69.4361488 230.582222,77.2643643 283.304541,65.7107008 C353.280291,50.3760895 353.280291,50.3760895 488.157048,0.0280262362" id="Path" stroke="#CCCAC2" stroke-linecap="round"></path>
                </g>
                <g id="Group" transform="translate(437.461801, 0.000000)" stroke-linejoin="round" stroke-width="0.5">
                    <path d="M32.5621813,505.065275 L30.2120087,470.17536 L11.3404798,437.262945 C4.82173469,425.894092 -5.71277225,407.025765 4.18095295,396.341424 C14.0596541,385.673309 24.4723059,376.063938 32.8229257,365.41065 C37.5540296,359.374952 52.940552,352.532967 57.0344312,334.522865 C60.9382665,317.348818 82.1084036,287.505077 77.9849288,242.355855 C70.615897,161.670009 70.615897,161.670009 55.8557042,0.056017054" id="Path" stroke="#6C6974"></path>
                    <path d="M32.5621813,505.065275 L30.2120087,470.17536 L11.3404798,437.262945 C4.82173469,425.894092 -5.71277225,407.025765 4.18095295,396.341424 C14.0596541,385.673309 24.4723059,376.063938 32.8229257,365.41065 C37.5540296,359.374952 52.940552,352.532967 57.0344312,334.522865 C60.9382665,317.348818 82.1084036,287.505077 77.9849288,242.355855 C70.615897,161.670009 70.615897,161.670009 55.8557042,0.056017054" id="Path" stroke="#CCCAC2" stroke-linecap="round"></path>
                </g>
                <g id="Group" transform="translate(227.875508, 614.395700)" stroke-linejoin="round">
                    <polyline id="Path" stroke="#9A979B" stroke-width="0.574562959" points="484.974113 92.976821 470.093023 86.441276 462.376902 83.0524748 456.865388 80.6319026 451.905024 78.4533876 447.495812 76.5169298 443.0866 74.580472 438.677389 72.6440142 434.268177 70.7075564 429.858965 68.7710986 425.496267 67.1361342 421.180082 65.8026632 416.910412 64.7706856 412.687255 64.0402014 408.510612 63.6112105 404.380482 63.4837131 400.296866 63.657709 396.259765 64.1331984 392.222663 64.6086877 388.185561 65.0841771 384.148459 65.5596664 380.111357 66.0351558 376.074255 66.5106451 372.037153 66.9861345 368.000051 67.4616238 363.962949 67.9371131 360.062708 68.1636883 356.299328 68.1413492 352.672809 67.8700959 349.183151 67.3499285 345.830354 66.5808468 342.614418 65.5628509 339.535343 64.2959408 336.593129 62.7801165 333.650914 61.2642922 330.7087 59.7484679 327.766486 58.2326436 324.824272 56.7168193 321.882058 55.200995 318.939844 53.6851707 315.99763 52.1693464 313.055415 50.6535221 310.077804 49.216045 307.064796 47.856915 304.016391 46.5761321 300.932589 45.3736964 297.81339 44.2496078 294.658795 43.2038664 291.468802 42.2364721 288.243412 41.3474249 285.018023 40.4583778 281.792633 39.5693306 278.567243 38.6802835 275.341854 37.7912364 272.116464 36.9021892 268.891074 36.0131421 265.665684 35.1240949 262.440295 34.2350478 259.352225 33.2660464 256.401476 32.2170907 253.588048 31.0881808 250.911939 29.8793166 248.373151 28.5904981 245.971683 27.2217254 243.707536 25.7729984 241.580708 24.2443172 239.453881 22.715636 237.327054 21.1869547 235.200227 19.6582735 233.0734 18.1295922 230.680719 16.4098258 228.022185 14.4989743 224.300237 11.8237821 217.122195 6.66448292 209.152212 5.04925645 205.019629 4.21173161 202.067783 3.61349958 199.411122 3.07509076 197.049646 2.59650514 194.688169 2.11791952 192.326693 1.6393339 189.965216 1.16074827 187.60374 0.682162653 185.319761 0.460834524 183.113278 0.496763885 180.984292 0.789950738 178.932803 1.34039508 176.958811 2.14809692 175.062316 3.21305625 173.243317 4.53527307 171.501816 6.11474738 169.760315 7.69422169 168.018813 9.273696 166.277312 10.8531703 164.53581 12.4326446 162.794309 14.0121189 161.052807 15.5915932 159.311306 17.1710676 157.569804 18.7505419 155.986176 20.4191982 154.560419 22.1770365 153.292535 24.0240568 152.182524 25.9602591 151.230385 27.9856434 150.436118 30.1002097 149.799724 32.3039579 149.321203 34.5968882 148.842681 36.8898185 148.36416 39.1827488 147.885638 41.4756791 147.407117 43.7686094 146.928596 46.0615397 146.450074 48.3544699 145.971553 50.6474002 145.493031 52.9403305 144.822161 55.3042921 143.958941 57.7392849 142.903372 60.2453091 141.655454 62.8223645 140.215187 65.4704513 138.582571 68.1895693 136.757606 70.9797186 134.740292 73.8408992 132.722977 76.7020798 130.705663 79.5632604 128.688349 82.424441 126.671034 85.2856216 124.65372 88.1468022 122.636406 91.0079828 120.619092 93.8691634 118.601777 96.730344 116.39411 99.2927059 113.99609 101.556249 111.407717 103.520974 108.628992 105.18688 105.659914 106.553967 102.500483 107.622236 99.1506986 108.391686 95.6105619 108.862317 92.0704251 109.332948 88.5302884 109.80358 84.9901517 110.274211 81.4500149 110.744842 77.9098782 111.215474 74.3697415 111.686105 70.8296047 112.156736 67.289468 112.627367 63.7631228 113.234137 60.250569 113.977044 56.7518066 114.856089 53.2668358 115.871272 49.7956564 117.022593 46.3382684 118.310052 42.894672 119.733649 39.464867 121.293384 36.035062 122.853119 32.605257 124.412854 29.175452 125.972589 25.745647 127.532324 21.8871164 129.287026 17.5998602 131.236694 11.5977014 133.966231 0.0221095757 139.230336"></polyline>
                    <polyline id="Path" stroke="#6C6974" stroke-width="0.545827327" stroke-linecap="round" points="484.974113 92.976821 470.093023 86.441276 462.376902 83.0524748 456.865388 80.6319026 451.905024 78.4533876 447.495812 76.5169298 443.0866 74.580472 438.677389 72.6440142 434.268177 70.7075564 429.858965 68.7710986 425.496267 67.1361342 421.180082 65.8026632 416.910412 64.7706856 412.687255 64.0402014 408.510612 63.6112105 404.380482 63.4837131 400.296866 63.657709 396.259765 64.1331984 392.222663 64.6086877 388.185561 65.0841771 384.148459 65.5596664 380.111357 66.0351558 376.074255 66.5106451 372.037153 66.9861345 368.000051 67.4616238 363.962949 67.9371131 360.062708 68.1636883 356.299328 68.1413492 352.672809 67.8700959 349.183151 67.3499285 345.830354 66.5808468 342.614418 65.5628509 339.535343 64.2959408 336.593129 62.7801165 333.650914 61.2642922 330.7087 59.7484679 327.766486 58.2326436 324.824272 56.7168193 321.882058 55.200995 318.939844 53.6851707 315.99763 52.1693464 313.055415 50.6535221 310.077804 49.216045 307.064796 47.856915 304.016391 46.5761321 300.932589 45.3736964 297.81339 44.2496078 294.658795 43.2038664 291.468802 42.2364721 288.243412 41.3474249 285.018023 40.4583778 281.792633 39.5693306 278.567243 38.6802835 275.341854 37.7912364 272.116464 36.9021892 268.891074 36.0131421 265.665684 35.1240949 262.440295 34.2350478 259.352225 33.2660464 256.401476 32.2170907 253.588048 31.0881808 250.911939 29.8793166 248.373151 28.5904981 245.971683 27.2217254 243.707536 25.7729984 241.580708 24.2443172 239.453881 22.715636 237.327054 21.1869547 235.200227 19.6582735 233.0734 18.1295922 230.680719 16.4098258 228.022185 14.4989743 224.300237 11.8237821 217.122195 6.66448292 209.152212 5.04925645 205.019629 4.21173161 202.067783 3.61349958 199.411122 3.07509076 197.049646 2.59650514 194.688169 2.11791952 192.326693 1.6393339 189.965216 1.16074827 187.60374 0.682162653 185.319761 0.460834524 183.113278 0.496763885 180.984292 0.789950738 178.932803 1.34039508 176.958811 2.14809692 175.062316 3.21305625 173.243317 4.53527307 171.501816 6.11474738 169.760315 7.69422169 168.018813 9.273696 166.277312 10.8531703 164.53581 12.4326446 162.794309 14.0121189 161.052807 15.5915932 159.311306 17.1710676 157.569804 18.7505419 155.986176 20.4191982 154.560419 22.1770365 153.292535 24.0240568 152.182524 25.9602591 151.230385 27.9856434 150.436118 30.1002097 149.799724 32.3039579 149.321203 34.5968882 148.842681 36.8898185 148.36416 39.1827488 147.885638 41.4756791 147.407117 43.7686094 146.928596 46.0615397 146.450074 48.3544699 145.971553 50.6474002 145.493031 52.9403305 144.822161 55.3042921 143.958941 57.7392849 142.903372 60.2453091 141.655454 62.8223645 140.215187 65.4704513 138.582571 68.1895693 136.757606 70.9797186 134.740292 73.8408992 132.722977 76.7020798 130.705663 79.5632604 128.688349 82.424441 126.671034 85.2856216 124.65372 88.1468022 122.636406 91.0079828 120.619092 93.8691634 118.601777 96.730344 116.39411 99.2927059 113.99609 101.556249 111.407717 103.520974 108.628992 105.18688 105.659914 106.553967 102.500483 107.622236 99.1506986 108.391686 95.6105619 108.862317 92.0704251 109.332948 88.5302884 109.80358 84.9901517 110.274211 81.4500149 110.744842 77.9098782 111.215474 74.3697415 111.686105 70.8296047 112.156736 67.289468 112.627367 63.7631228 113.234137 60.250569 113.977044 56.7518066 114.856089 53.2668358 115.871272 49.7956564 117.022593 46.3382684 118.310052 42.894672 119.733649 39.464867 121.293384 36.035062 122.853119 32.605257 124.412854 29.175452 125.972589 25.745647 127.532324 21.8871164 129.287026 17.5998602 131.236694 11.5977014 133.966231 0.0221095757 139.230336"></polyline>
                    <polyline id="Path" stroke="#CCCAC2" stroke-width="0.5" points="484.974113 92.976821 470.093023 86.441276 462.376902 83.0524748 456.865388 80.6319026 451.905024 78.4533876 447.495812 76.5169298 443.0866 74.580472 438.677389 72.6440142 434.268177 70.7075564 429.858965 68.7710986 425.496267 67.1361342 421.180082 65.8026632 416.910412 64.7706856 412.687255 64.0402014 408.510612 63.6112105 404.380482 63.4837131 400.296866 63.657709 396.259765 64.1331984 392.222663 64.6086877 388.185561 65.0841771 384.148459 65.5596664 380.111357 66.0351558 376.074255 66.5106451 372.037153 66.9861345 368.000051 67.4616238 363.962949 67.9371131 360.062708 68.1636883 356.299328 68.1413492 352.672809 67.8700959 349.183151 67.3499285 345.830354 66.5808468 342.614418 65.5628509 339.535343 64.2959408 336.593129 62.7801165 333.650914 61.2642922 330.7087 59.7484679 327.766486 58.2326436 324.824272 56.7168193 321.882058 55.200995 318.939844 53.6851707 315.99763 52.1693464 313.055415 50.6535221 310.077804 49.216045 307.064796 47.856915 304.016391 46.5761321 300.932589 45.3736964 297.81339 44.2496078 294.658795 43.2038664 291.468802 42.2364721 288.243412 41.3474249 285.018023 40.4583778 281.792633 39.5693306 278.567243 38.6802835 275.341854 37.7912364 272.116464 36.9021892 268.891074 36.0131421 265.665684 35.1240949 262.440295 34.2350478 259.352225 33.2660464 256.401476 32.2170907 253.588048 31.0881808 250.911939 29.8793166 248.373151 28.5904981 245.971683 27.2217254 243.707536 25.7729984 241.580708 24.2443172 239.453881 22.715636 237.327054 21.1869547 235.200227 19.6582735 233.0734 18.1295922 230.680719 16.4098258 228.022185 14.4989743 224.300237 11.8237821 217.122195 6.66448292 209.152212 5.04925645 205.019629 4.21173161 202.067783 3.61349958 199.411122 3.07509076 197.049646 2.59650514 194.688169 2.11791952 192.326693 1.6393339 189.965216 1.16074827 187.60374 0.682162653 185.319761 0.460834524 183.113278 0.496763885 180.984292 0.789950738 178.932803 1.34039508 176.958811 2.14809692 175.062316 3.21305625 173.243317 4.53527307 171.501816 6.11474738 169.760315 7.69422169 168.018813 9.273696 166.277312 10.8531703 164.53581 12.4326446 162.794309 14.0121189 161.052807 15.5915932 159.311306 17.1710676 157.569804 18.7505419 155.986176 20.4191982 154.560419 22.1770365 153.292535 24.0240568 152.182524 25.9602591 151.230385 27.9856434 150.436118 30.1002097 149.799724 32.3039579 149.321203 34.5968882 148.842681 36.8898185 148.36416 39.1827488 147.885638 41.4756791 147.407117 43.7686094 146.928596 46.0615397 146.450074 48.3544699 145.971553 50.6474002 145.493031 52.9403305 144.822161 55.3042921 143.958941 57.7392849 142.903372 60.2453091 141.655454 62.8223645 140.215187 65.4704513 138.582571 68.1895693 136.757606 70.9797186 134.740292 73.8408992 132.722977 76.7020798 130.705663 79.5632604 128.688349 82.424441 126.671034 85.2856216 124.65372 88.1468022 122.636406 91.0079828 120.619092 93.8691634 118.601777 96.730344 116.39411 99.2927059 113.99609 101.556249 111.407717 103.520974 108.628992 105.18688 105.659914 106.553967 102.500483 107.622236 99.1506986 108.391686 95.6105619 108.862317 92.0704251 109.332948 88.5302884 109.80358 84.9901517 110.274211 81.4500149 110.744842 77.9098782 111.215474 74.3697415 111.686105 70.8296047 112.156736 67.289468 112.627367 63.7631228 113.234137 60.250569 113.977044 56.7518066 114.856089 53.2668358 115.871272 49.7956564 117.022593 46.3382684 118.310052 42.894672 119.733649 39.464867 121.293384 36.035062 122.853119 32.605257 124.412854 29.175452 125.972589 25.745647 127.532324 21.8871164 129.287026 17.5998602 131.236694 11.5977014 133.966231 0.0221095757 139.230336"></polyline>
                    <polyline id="Path" stroke="#6C6974" stroke-width="0.5" stroke-linecap="round" points="484.974113 92.976821 470.093023 86.441276 462.376902 83.0524748 456.865388 80.6319026 451.905024 78.4533876 447.495812 76.5169298 443.0866 74.580472 438.677389 72.6440142 434.268177 70.7075564 429.858965 68.7710986 425.496267 67.1361342 421.180082 65.8026632 416.910412 64.7706856 412.687255 64.0402014 408.510612 63.6112105 404.380482 63.4837131 400.296866 63.657709 396.259765 64.1331984 392.222663 64.6086877 388.185561 65.0841771 384.148459 65.5596664 380.111357 66.0351558 376.074255 66.5106451 372.037153 66.9861345 368.000051 67.4616238 363.962949 67.9371131 360.062708 68.1636883 356.299328 68.1413492 352.672809 67.8700959 349.183151 67.3499285 345.830354 66.5808468 342.614418 65.5628509 339.535343 64.2959408 336.593129 62.7801165 333.650914 61.2642922 330.7087 59.7484679 327.766486 58.2326436 324.824272 56.7168193 321.882058 55.200995 318.939844 53.6851707 315.99763 52.1693464 313.055415 50.6535221 310.077804 49.216045 307.064796 47.856915 304.016391 46.5761321 300.932589 45.3736964 297.81339 44.2496078 294.658795 43.2038664 291.468802 42.2364721 288.243412 41.3474249 285.018023 40.4583778 281.792633 39.5693306 278.567243 38.6802835 275.341854 37.7912364 272.116464 36.9021892 268.891074 36.0131421 265.665684 35.1240949 262.440295 34.2350478 259.352225 33.2660464 256.401476 32.2170907 253.588048 31.0881808 250.911939 29.8793166 248.373151 28.5904981 245.971683 27.2217254 243.707536 25.7729984 241.580708 24.2443172 239.453881 22.715636 237.327054 21.1869547 235.200227 19.6582735 233.0734 18.1295922 230.680719 16.4098258 228.022185 14.4989743 224.300237 11.8237821 217.122195 6.66448292 209.152212 5.04925645 205.019629 4.21173161 202.067783 3.61349958 199.411122 3.07509076 197.049646 2.59650514 194.688169 2.11791952 192.326693 1.6393339 189.965216 1.16074827 187.60374 0.682162653 185.319761 0.460834524 183.113278 0.496763885 180.984292 0.789950738 178.932803 1.34039508 176.958811 2.14809692 175.062316 3.21305625 173.243317 4.53527307 171.501816 6.11474738 169.760315 7.69422169 168.018813 9.273696 166.277312 10.8531703 164.53581 12.4326446 162.794309 14.0121189 161.052807 15.5915932 159.311306 17.1710676 157.569804 18.7505419 155.986176 20.4191982 154.560419 22.1770365 153.292535 24.0240568 152.182524 25.9602591 151.230385 27.9856434 150.436118 30.1002097 149.799724 32.3039579 149.321203 34.5968882 148.842681 36.8898185 148.36416 39.1827488 147.885638 41.4756791 147.407117 43.7686094 146.928596 46.0615397 146.450074 48.3544699 145.971553 50.6474002 145.493031 52.9403305 144.822161 55.3042921 143.958941 57.7392849 142.903372 60.2453091 141.655454 62.8223645 140.215187 65.4704513 138.582571 68.1895693 136.757606 70.9797186 134.740292 73.8408992 132.722977 76.7020798 130.705663 79.5632604 128.688349 82.424441 126.671034 85.2856216 124.65372 88.1468022 122.636406 91.0079828 120.619092 93.8691634 118.601777 96.730344 116.39411 99.2927059 113.99609 101.556249 111.407717 103.520974 108.628992 105.18688 105.659914 106.553967 102.500483 107.622236 99.1506986 108.391686 95.6105619 108.862317 92.0704251 109.332948 88.5302884 109.80358 84.9901517 110.274211 81.4500149 110.744842 77.9098782 111.215474 74.3697415 111.686105 70.8296047 112.156736 67.289468 112.627367 63.7631228 113.234137 60.250569 113.977044 56.7518066 114.856089 53.2668358 115.871272 49.7956564 117.022593 46.3382684 118.310052 42.894672 119.733649 39.464867 121.293384 36.035062 122.853119 32.605257 124.412854 29.175452 125.972589 25.745647 127.532324 21.8871164 129.287026 17.5998602 131.236694 11.5977014 133.966231 0.0221095757 139.230336"></polyline>
                    <g transform="translate(214.171109, 0.000000)" id="Path" stroke-width="0.5">
                        <path d="M0.071239702,13.263175 L5.83093236,0.0657908279" stroke="#130F26"></path>
                        <path d="M0.071239702,13.263175 L5.83093236,0.0657908279" stroke="#CCCAC2" stroke-linecap="round"></path>
                    </g>
                </g>
                <g id="Group" transform="translate(452.559884, 532.179624)" fill="#9A979B" fill-rule="nonzero" stroke="#130F26" stroke-width="0.5">
                    <polygon id="Path" points="0.114758228 2.21507161 2.07378125 0.0192499228 5.53759664 3.11015902 3.57857362 5.30598071"></polygon>
                </g>
                <g id="Group" transform="translate(445.430728, 548.311199)" fill="#9A979B" fill-rule="nonzero" stroke="#130F26" stroke-width="0.5">
                    <polygon id="Path" points="39.3484196 14.0869988 45.2359353 8.04688339 53.125628 15.7388245 47.2381123 21.7789399"></polygon>
                    <polygon id="Path" points="44.5016477 19.1110636 47.2381123 21.7789399 40.8524366 28.3301273 38.115972 25.6622509"></polygon>
                    <polygon id="Path" points="34.0718672 3.78164134 38.3182818 1.30261772 43.3712809 9.95986812 39.1248663 12.4388917"></polygon>
                    <polygon id="Path" points="24.2018172 9.54369931 31.6783109 5.17898079 35.1362031 11.1033513 27.6597095 15.4680698"></polygon>
                    <polygon id="Path" points="38.3182818 1.30261772 40.525475 0.0140755582 62.4961532 6.12542273 53.125628 15.7388245"></polygon>
                    <polygon id="Path" points="16.9594651 34.8387356 14.1077573 15.4365325 22.5638474 10.4999333 31.8544567 19.5576776"></polygon>
                    <polygon id="Path" points="35.5679949 23.1781376 40.8524366 28.3301273 33.9477675 35.41376 28.6633257 30.2617703"></polygon>
                    <polygon id="Path" points="29.1510597 40.3347946 24.9802588 44.6136994 17.2949055 37.120976 21.4657064 32.8420712"></polygon>
                    <polygon id="Path" points="24.9802588 44.6136994 19.2588897 50.4833619 17.2949055 37.120976"></polygon>
                    <polygon id="Path" points="0.423138432 53.8737376 0.193851906 46.4713101 0.0226793763 40.9450707 9.56823133 40.6493414 16.0373232 40.4489234 16.2084957 45.9751628 16.4377822 53.3775902 9.96869039 53.5780082"></polygon>
                </g>
                <g id="Group" transform="translate(410.027980, 508.319582)" fill="#9A979B" fill-rule="nonzero" stroke="#130F26" stroke-width="0.5">
                    <polygon id="Path" points="23.3363299 33.5099639 20.1216095 37.1132665 0.0846742786 14.0040286 17.0296409 9.54401206"></polygon>
                    <polygon id="Path" points="19.2001027 17.7919504 17.0296409 9.54401206 31.553603 5.72121838 33.7240647 13.9691567"></polygon>
                    <polygon id="Path" points="35.1990972 19.5744049 35.3289233 20.067755 23.3363299 33.5099639 20.6751352 23.3971986"></polygon>
                    <polygon id="Path" points="39.5233883 3.62352319 43.0123078 2.70521873 44.7905004 9.4625012 41.301581 10.3808057"></polygon>
                    <polygon id="Path" points="31.553603 5.72121838 39.5233883 3.62352319 41.9096617 12.6915639 33.9398763 14.7892591"></polygon>
                    <polygon id="Path" points="41.6229156 13.0129707 35.3289233 20.067755 34.000402 15.0192618"></polygon>
                    <polygon id="Path" points="43.0123078 2.70521873 53.2148526 0.0198479153 44.7905004 9.4625012"></polygon>
                </g>
                <g id="Group" transform="translate(473.873024, 506.975623)" fill="#9A979B" fill-rule="nonzero" stroke="#130F26" stroke-width="0.5">
                    <polygon id="Path" points="4.78618344 12.4323067 0.0241430117 0.119360044 6.468326 1.07391958"></polygon>
                    <polygon id="Path" points="6.468326 1.07391958 9.1622946 1.47296993 13.0071176 2.04249325 11.9397056 9.25001493 11.3249751 13.4008803 7.48015205 12.831357 4.78618344 12.4323067 5.40091398 8.28144126"></polygon>
                    <polygon id="Path" points="13.0071176 2.04249325 16.7895577 2.60277596 21.6291481 3.3196515 20.6067123 10.2234787 19.7843712 15.7762 14.9447808 15.0593245 11.1623407 14.4990418 11.9846818 8.94632048"></polygon>
                    <polygon id="Path" points="21.6291481 3.3196515 23.721122 3.62952998 29.2890331 4.45428971 28.4448598 10.154429 27.4442561 16.9108383 21.8763451 16.0860785 19.7843712 15.7762 20.7849748 9.01979083"></polygon>
                    <polygon id="Path" points="20.1036811 15.8234986 27.4442561 16.9108383 24.2109303 38.7433316 17.0061223 36.7392476"></polygon>
                    <polygon id="Path" points="8.50926376 22.0588712 6.1233917 15.8898527 10.1185086 14.3444217 12.5043807 20.5134402"></polygon>
                    <polygon id="Path" points="18.9511751 23.6056035 17.0061223 36.7392476 13.8470631 35.8605261 8.50926376 22.0588712"></polygon>
                    <polygon id="Path" points="35.7693544 16.2064772 31.3214552 15.5476219 27.7250397 15.0148945 28.3962701 10.4825226 31.9926857 11.01525 32.8854487 4.9870171 37.3333479 5.64587248 36.4405849 11.6741054"></polygon>
                    <polygon id="Path" points="37.3333479 5.64587248 41.1112454 6.20548231 44.0746854 6.64444873 43.3487623 11.546123 42.510692 17.2050535 39.547252 16.7660871 35.7693544 16.2064772 36.6074248 10.5475468"></polygon>
                    <polygon id="Path" points="37.3183327 42.3892767 24.2109303 38.7433316 25.9028266 32.6596108 39.010229 36.3055559"></polygon>
                    <polygon id="Path" points="47.3817206 7.13431098 77.5584731 11.6043124 60.6782315 24.5182245"></polygon>
                    <polygon id="Path" points="59.7670765 25.2152865 38.9678765 41.1273242 41.7202967 22.5420654"></polygon>
                    <polygon id="Path" points="41.7202967 22.5420654 44.0746854 6.64444873 47.3817206 7.13431098 60.6782315 24.5182245 59.7670765 25.2152865"></polygon>
                </g>
                <g id="Group" transform="translate(387.153949, 523.730268)" fill="#9A979B" fill-rule="nonzero" stroke="#130F26" stroke-width="0.5">
                    <polygon id="Path" points="55.10725 55.4990856 55.2577925 60.3592924 42.3050564 60.7605793 42.1545139 55.9003725"></polygon>
                    <polygon id="Path" points="54.9221915 49.5245436 55.10725 55.4990856 50.6252674 55.6379413 50.440209 49.6633992"></polygon>
                    <polygon id="Path" points="50.4269654 49.2358344 50.2711383 44.2050173 51.7244298 44.0458521 54.6768309 49.1041699"></polygon>
                    <polygon id="Path" points="41.8209221 45.1304891 46.412412 44.6276269 49.4303516 44.2971006 49.9324724 48.8827613 50.6067735 55.0408724 47.588834 55.3713986 42.9973441 55.8742609 42.3230429 49.7161498"></polygon>
                    <polygon id="Path" points="42.3050564 60.7605793 36.0861332 60.9532468 30.0777107 61.1393929 30.3574007 53.7187208 30.6349221 46.3555853 36.1316355 45.7535826 41.8209221 45.1304891 42.0620471 52.9151191"></polygon>
                    <polygon id="Path" points="55.2577925 60.3592924 55.5236436 68.9421937 55.7355604 75.7838459 50.5389132 75.9448424 46.1218998 76.0816853 45.909983 69.2400331 50.3269965 69.1031903 50.0611453 60.520289"></polygon>
                    <polygon id="Path" points="29.6447111 72.6276428 29.9727212 63.9249509 30.0777107 61.1393929 35.548279 61.3456245 38.9433104 61.4736117 38.8383209 64.2591696 38.5103107 72.9618615 35.1152793 72.8338744"></polygon>
                    <polygon id="Path" points="45.4533295 76.1023982 50.4993615 75.9460678 55.7355604 75.7838459 55.9801938 83.6817424 56.1190492 88.1646356 50.8447164 87.0957196 45.7619355 86.0656243 45.650194 82.4580936"></polygon>
                    <polygon id="Path" points="39.4045432 84.7772115 35.0660964 83.8979657 31.5237686 76.5339479 39.1419017 76.2979316"></polygon>
                    <polygon id="Path" points="43.754175 85.6587241 39.4045432 84.7772115 41.1351459 76.2361792 45.4847777 77.1176918"></polygon>
                    <polygon id="Path" points="10.8627773 57.6947862 9.90752591 54.8442626 7.89735967 48.8458143 20.1990484 47.4985273 28.8983777 46.5457725 28.6630229 52.7901513 28.55118 55.7575436 21.2240476 56.5600148"></polygon>
                    <polygon id="Path" points="28.2564545 63.5771351 28.0653947 68.6462887 21.1182916 68.3843941 21.3093513 63.3152406"></polygon>
                    <polygon id="Path" points="28.0653947 68.6462887 27.9016489 72.9907551 21.6970859 73.6702819 21.228953 69.3950191"></polygon>
                    <polygon id="Path" points="28.5074521 56.9177219 28.2951622 62.5501512 20.4470572 62.2542903 20.6593472 56.621861"></polygon>
                    <polygon id="Path" points="21.6970859 73.6702819 16.410426 74.2492795 10.8627773 57.6947862 19.8401414 56.7115808"></polygon>
                    <polygon id="Path" points="23.1644637 73.509574 27.9016489 72.9907551 32.9412159 83.4673294 24.5762372 81.7720517"></polygon>
                    <polygon id="Path" points="28.7232655 9.63866126 32.8505378 14.3987763 27.9184301 18.676052 23.7911578 13.9159369"></polygon>
                    <polygon id="Path" points="21.9417179 15.5198283 18.8590502 18.1932126 12.1467528 10.4517054 14.7273795 7.19930115"></polygon>
                    <polygon id="Path" points="22.8891429 7.1198043 24.9726333 5.31293727 28.7232655 9.63866126 26.6397751 11.4455283"></polygon>
                    <polygon id="Path" points="14.7273795 7.19930115 17.7107147 3.43935691 21.9246142 6.78356933 18.9412789 10.5435136"></polygon>
                    <polygon id="Path" points="18.3387321 2.64785681 20.4044892 0.0443506499 24.9726333 5.31293727 22.504999 7.45294572"></polygon>
                    <polygon id="Path" points="9.3632451 13.9598038 12.1467528 10.4517054 19.110219 18.4828936 15.7852014 21.3664513"></polygon>
                    <polygon id="Path" points="6.78179335 17.213248 9.3632451 13.9598038 14.4463931 19.8223609 11.3627398 22.4966"></polygon>
                    <polygon id="Path" points="11.3627398 22.4966 8.01518852 25.3996996 4.73939423 19.7873156 6.78179335 17.213248"></polygon>
                    <polygon id="Path" points="10.146462 29.051188 6.5487513 31.1515034 2.71731338 33.3882669 1.08415698 28.514837 0.113278609 25.6176817 2.49910715 22.6107846 4.008961 25.7950735 6.75534471 23.2412224"></polygon>
                    <polygon id="Path" points="35.740483 34.4780457 38.9242252 32.6194019 43.4969864 29.9498597 46.6021507 35.2699051 50.7705957 42.4116581 45.0080609 43.0427737 40.9959499 43.4821821 37.9840856 38.3219864"></polygon>
                    <polygon id="Path" points="32.5312876 44.409236 26.9816991 45.0170297 26.423294 39.9173478 31.9728824 39.3095542"></polygon>
                    <polygon id="Path" points="30.8270752 37.3464548 35.740483 34.4780457 40.9959499 43.4821821 34.8041367 44.1603125"></polygon>
                    <polygon id="Path" points="30.4672845 17.1880508 33.6552873 15.3269197 37.65334 19.9380017 43.4969864 29.9498597 39.3343819 32.3799557"></polygon>
                    <polygon id="Path" points="5.19051685 40.7684442 2.71731338 33.3882669 8.5741165 31.4251656 11.04732 38.8053429"></polygon>
                    <polygon id="Path" points="7.11806332 46.5203504 5.59862128 41.9862506 13.7007592 39.2705511 15.2202013 43.8046509"></polygon>
                    <polygon id="Path" points="16.0607703 43.3139333 17.6512608 46.0389039 9.94789888 46.8825798"></polygon>
                    <polygon id="Path" points="25.1550271 45.2170877 17.6512608 46.0389039 17.2024747 41.9403273 24.706241 41.1185111"></polygon>
                </g>
                <g id="Group" transform="translate(470.513189, 465.111433)" fill="#9A979B" fill-rule="nonzero" stroke="#130F26" stroke-width="0.5">
                    <polygon id="Path" points="73.5943788 36.839553 76.6107161 37.286355 83.8778261 50.9949213 71.7637606 49.2004973"></polygon>
                    <polygon id="Path" points="71.7637606 49.2004973 63.8812492 48.032882 65.7118674 35.6719377 73.5943788 36.839553"></polygon>
                    <polygon id="Path" points="63.8812492 48.032882 58.9025107 47.2953948 60.7331289 34.9344506 65.7118674 35.6719377"></polygon>
                    <polygon id="Path" points="52.7235983 33.8623497 60.7165605 35.0463257 58.9025107 47.2953948 50.9095485 46.1114188"></polygon>
                    <polygon id="Path" points="50.9095485 46.1114188 45.4087486 45.2966001 38.4205815 44.2614616 39.2349496 38.7625762 46.2231168 39.7977147 47.2227985 33.047531 52.7235983 33.8623497 51.7239167 40.6125334"></polygon>
                    <polygon id="Path" points="19.1813247 41.4116021 13.8199407 40.6174347 9.00049606 39.9035433 10.0221443 33.0050338 10.9888611 26.4774397 15.8083058 27.1913311 21.1696897 27.9854986 20.2029729 34.5130926"></polygon>
                    <polygon id="Path" points="9.00049606 39.9035433 2.32760039 38.9151051 1.39406861 25.0561889 10.9888611 26.4774397"></polygon>
                    <polygon id="Path" points="1.39406861 25.0561889 0.962048358 18.6425534 0.658580803 14.1373705 6.99876634 13.7102102 14.5787504 13.1995205 21.0717019 12.7620678 21.3751695 17.2672508 21.8071897 23.6808862 15.3142382 24.1183388 7.73425414 24.6290286"></polygon>
                    <polygon id="Path" points="32.9640659 29.2612171 40.4772537 30.3741254 38.4205815 44.2614616 30.9073937 43.1485533"></polygon>
                    <polygon id="Path" points="30.9073937 43.1485533 19.1813247 41.4116021 20.2096608 34.467934 31.9357298 36.2048852"></polygon>
                    <polygon id="Path" points="13.1724636 1.70570725 18.5264003 0.0794976856 21.6700603 10.4314272 16.3161235 12.0576368"></polygon>
                    <polygon id="Path" points="11.7397668 11.3797533 0.359276362 9.69399181 0.0888769252 5.67972767 13.1724636 1.70570725"></polygon>
                </g>
                <g id="Group" transform="translate(401.219281, 440.866843)" fill="#9A979B" fill-rule="nonzero" stroke="#130F26" stroke-width="0.5">
                    <polygon id="Path" points="42.0664156 50.3580651 46.3241061 68.6261438 39.0647479 70.5368503 29.7310047 53.2336345"></polygon>
                    <polygon id="Path" points="45.7640618 58.6096405 43.352658 48.2632532 47.7424294 47.2399316 50.1538333 57.5863189"></polygon>
                    <polygon id="Path" points="52.7076853 40.1653633 58.5672135 38.9451371 60.5289983 48.3675618 54.6694701 49.587788"></polygon>
                    <polygon id="Path" points="58.5672135 38.9451371 64.1387183 37.7848907 64.7917677 47.479855 60.5289983 48.3675618"></polygon>
                    <polygon id="Path" points="61.3850337 48.1892954 64.7917677 47.479855 65.2678781 54.548039 62.8152872 55.0587825"></polygon>
                    <polygon id="Path" points="53.9273276 66.6249304 47.9960176 68.1860867 45.7640618 58.6096405 51.7678307 57.3593766"></polygon>
                    <polygon id="Path" points="60.0503297 65.0133196 54.1793651 66.5585926 51.8395523 57.667106 57.710517 56.121833"></polygon>
                    <polygon id="Path" points="57.9656334 56.0687059 65.2678781 54.548039 65.8696425 63.4816417 60.0503297 65.0133196"></polygon>
                    <polygon id="Path" points="63.9227473 36.0644693 56.5490357 37.600019 54.7899722 29.1512621 62.1636839 27.6157125"></polygon>
                    <polygon id="Path" points="54.7899722 29.1512621 52.1072106 16.2659961 55.4178934 15.8508866 62.1636839 27.6157125"></polygon>
                    <polygon id="Path" points="42.5811357 17.4604216 47.2268632 16.8779177 52.1072106 16.2659961 52.8079659 21.8559764 53.3306582 26.025535 48.4503108 26.6374567 43.8045833 27.2199605 43.2818909 23.050402"></polygon>
                    <polygon id="Path" points="34.002717 16.7941694 33.3959385 14.7979052 46.334826 0.00979154477 54.4861255 14.2258601"></polygon>
                    <polygon id="Path" points="11.8862685 54.5985063 15.788818 59.1003368 4.51870221 68.8721845 2.75629822 62.514723"></polygon>
                    <polygon id="Path" points="2.75629822 62.514723 0.083106686 52.8718078 5.26014542 46.9548665 11.8862685 54.5985063"></polygon>
                    <polygon id="Path" points="15.6860322 61.476887 19.499515 58.1703749 23.9844372 63.344008 20.1709544 66.6505201"></polygon>
                    <polygon id="Path" points="20.6537944 57.1695474 26.9470931 51.7128903 31.660819 60.4513584 24.506301 64.3114573"></polygon>
                    <polygon id="Path" points="31.660819 60.4513584 37.3452875 70.9894225 22.872187 74.7988292 18.8587152 67.3585164"></polygon>
                    <polygon id="Path" points="10.4086499 66.0526852 15.6860322 61.476887 22.872187 74.7988292 16.0895148 76.5840691"></polygon>
                    <polygon id="Path" points="6.7837737 77.0429018 5.02993659 70.7163433 10.4086499 66.0526852 14.1834465 73.0505338"></polygon>
                    <polygon id="Path" points="14.1834465 73.0505338 16.0895148 76.5840691 7.2980504 78.8980351 6.7837737 77.0429018"></polygon>
                </g>
                <g id="Group" transform="translate(325.107850, 547.303230)" fill="#9A979B" fill-rule="nonzero" stroke="#130F26" stroke-width="0.5">
                    <polygon id="Path" points="36.3085651 64.0548079 42.6484875 67.8978069 52.2067598 73.6916366 57.4024624 76.8410569 51.8283144 81.8965931 46.9334494 79.1271432 42.6048755 83.5888552 34.0543245 79.067819 37.9286129 74.0323258 31.95578 70.6529759"></polygon>
                    <polygon id="Path" points="7.91934776 11.2104369 4.45439109 11.0673874 0.00901207902 10.8838616 0.097996032 5.72143998 0.194291437 0.13484307 4.78463611 0.324353746 4.61299757 5.90784015 8.13222161 6.05313001"></polygon>
                    <polygon id="Path" points="8.36258646 0.472068099 13.6970662 0.692300115 17.393692 0.844913938 17.1344631 7.12526591 16.9504533 11.5832827 13.2538275 11.4306689 7.91934776 11.2104369 8.1033576 6.75242007"></polygon>
                    <polygon id="Path" points="17.2163865 5.14050314 17.393692 0.844913938 20.6554773 0.979575536 23.4530959 5.39798338"></polygon>
                    <polygon id="Path" points="23.4530959 5.39798338 25.197755 8.15340383 27.9819062 12.5505419 22.7739562 12.3355336 16.9293628 12.0942418 17.1058148 7.81933108 17.2163865 5.14050314 20.5143632 5.27665889"></polygon>
                    <polygon id="Path" points="38.9947981 29.943709 43.4017272 36.9037749 39.8388801 39.1601377 35.431951 32.2000717"></polygon>
                    <polygon id="Path" points="60.4725236 63.8644693 63.1311844 68.0634147 64.5718404 70.338709 62.3678227 72.3376676 58.7381123 75.6296742 56.5085068 74.2781794 52.3938777 71.7840613 57.4203624 66.856539"></polygon>
                    <polygon id="Path" points="70.5232699 58.6208236 73.0652604 62.6355062 65.8711758 69.1602621 62.439429 63.7403465"></polygon>
                    <polygon id="Path" points="62.439429 63.7403465 60.0524927 59.9705481 68.1363336 54.8510252 70.5232699 58.6208236"></polygon>
                    <polygon id="Path" points="68.1363336 54.8510252 71.8201188 52.518072 75.2979266 50.3155649 76.0748179 52.6338518 72.9225587 54.8205532 75.5746687 60.3595702 73.0652604 62.6355062 69.5836031 57.1367646"></polygon>
                    <polygon id="Path" points="63.9942211 47.3952747 67.1891676 45.8464631 70.750888 53.1952193 67.5559416 54.744031"></polygon>
                    <polygon id="Path" points="67.1891676 45.8464631 72.8763636 43.0894857 75.2979266 50.3155649 70.750888 53.1952193"></polygon>
                    <polygon id="Path" points="65.2575429 51.1140641 67.7704168 55.0827615 60.0524927 59.9705481 57.5396188 56.0018507"></polygon>
                    <polygon id="Path" points="57.5396188 56.0018507 54.8858989 51.8107087 63.1592061 47.8000643 65.2575429 51.1140641"></polygon>
                    <polygon id="Path" points="62.3676467 46.2631262 58.8771291 47.9552216 54.8186804 39.5815856 58.3091979 37.8894902"></polygon>
                    <polygon id="Path" points="55.7734372 43.053418 57.2901326 45.4488048 58.8771291 47.9552216 55.9635812 49.3676199 54.4765922 47.0191498 52.5373397 48.1015211 51.1820992 45.9611274 53.0554743 44.7747128"></polygon>
                    <polygon id="Path" points="51.1820992 45.9611274 49.3397453 43.0514131 53.9310833 40.1437037 55.7734372 43.053418"></polygon>
                    <polygon id="Path" points="49.3397453 43.0514131 44.7087922 35.7375357 49.0763602 32.9715407 53.7073133 40.285418"></polygon>
                    <polygon id="Path" points="56.7071165 35.3592493 53.4439281 30.2055456 65.9125637 22.3091179 67.9085755 28.2653286"></polygon>
                    <polygon id="Path" points="68.1494517 28.9841165 70.416425 35.7488916 67.4936592 36.7285533 65.2266858 29.9637782"></polygon>
                    <polygon id="Path" points="69.2308957 42.9360345 63.3191154 45.8018835 61.2578836 41.5490259 67.1696639 38.6831769"></polygon>
                    <polygon id="Path" points="66.7728089 38.0564056 70.416425 35.7488916 72.3226713 41.4372369 69.7141339 42.7017755"></polygon>
                    <polygon id="Path" points="41.0984379 30.035537 37.1301977 23.7683126 40.5064625 21.6301131 44.4747027 27.8973375"></polygon>
                    <polygon id="Path" points="44.7087922 35.7375357 42.655946 32.4953812 41.0984379 30.035537 43.6550067 28.4164536 46.0543277 26.8969557 47.6118359 29.3568 49.6646821 32.5989545 47.265361 34.1184524"></polygon>
                    <polygon id="Path" points="50.4994965 19.7258924 48.5015998 16.5705223 46.264696 13.0376772 52.9208838 8.82229167 59.9097039 4.39624903 61.2779627 8.47920984 62.5000268 12.1259173 56.3534897 16.0185394"></polygon>
                    <polygon id="Path" points="63.4366902 14.9209732 65.0288171 19.6719689 65.9125637 22.3091179 59.3989493 24.4923712 54.5471888 26.1185991 53.6634423 23.4814502 52.0713153 18.7304545 56.9230758 17.1042265"></polygon>
                    <polygon id="Path" points="49.2552192 11.1437691 43.7183793 14.6502679 35.4491717 1.59032772 43.4144485 1.91917122"></polygon>
                    <polygon id="Path" points="43.4144485 1.91917122 59.2993685 2.57497424 59.9097039 4.39624903 49.2552192 11.1437691"></polygon>
                    <polygon id="Path" points="34.8949914 20.2381483 32.276281 16.1022985 30.4507624 13.2191729 33.7544086 11.1269629 39.2741503 7.63129242 41.099669 10.5144181 43.7183793 14.6502679 38.1986376 18.1459384"></polygon>
                    <polygon id="Path" points="30.6270208 4.00396793 34.500083 1.55114494 35.4491717 1.59032772 39.2741503 7.63129242 34.7413555 10.5019262"></polygon>
                    <polygon id="Path" points="30.4507624 13.2191729 26.3364276 6.72121464 30.6270208 4.00396793 34.7413555 10.5019262"></polygon>
                    <polygon id="Path" points="26.3364276 6.72121464 22.7558793 1.06628985 34.500083 1.55114494"></polygon>
                </g>
                <g id="Group" transform="translate(325.635989, 488.827758)" fill="#9A979B" fill-rule="nonzero" stroke="#130F26" stroke-width="0.5">
                    <polygon id="Path" points="40.2497074 43.6780996 43.4060419 44.3070662 42.1148702 50.7878638 38.9585357 50.1588972"></polygon>
                    <polygon id="Path" points="40.5646326 58.5689951 38.0748923 58.4662071 34.848823 58.33302 35.043917 53.6064678 38.2699862 53.7396549 38.4060943 50.4421571 40.8958346 50.5449451 40.7597266 53.8424429"></polygon>
                    <polygon id="Path" points="51.1210895 45.8444531 60.6209178 47.7374953 59.6403149 52.6594502 50.1404866 50.7664079"></polygon>
                    <polygon id="Path" points="54.2456563 59.1338111 49.6936122 58.9458816 50.0026788 51.4581087 54.5547228 51.6460381"></polygon>
                    <polygon id="Path" points="58.3169387 59.3018924 55.3187862 59.1781148 55.6015202 52.3283026 58.5996727 52.4520802"></polygon>
                    <polygon id="Path" points="43.4060419 44.3070662 47.6958695 45.1619053 51.1210895 45.8444531 50.625986 48.3295335 49.7962727 52.4941262 46.3710527 51.8115784 47.200766 47.6469858 42.9109384 46.7921467"></polygon>
                    <polygon id="Path" points="48.5205358 58.8974516 44.6128284 58.7361233 44.8853844 52.1328928 48.7930919 52.2942211"></polygon>
                    <polygon id="Path" points="43.5783293 58.6934144 40.5646326 58.5689951 42.0812251 50.9567393 45.0036857 51.5391015"></polygon>
                    <polygon id="Path" points="60.6209178 47.7374953 67.0761357 49.0238344 58.9018305 59.3260395 58.3169387 59.3018924"></polygon>
                    <polygon id="Path" points="25.4807374 49.3327153 31.2296733 49.570058 33.0669066 58.2594542 25.125808 57.9316089"></polygon>
                    <polygon id="Path" points="14.5311163 48.8806642 21.8676146 49.1835488 21.6607458 54.1953702 14.3242475 53.8924856"></polygon>
                    <polygon id="Path" points="21.5126852 57.7824425 14.1761869 57.4795579 14.3242475 53.8924856 21.6607458 54.1953702"></polygon>
                    <polygon id="Path" points="21.8676146 49.1835488 25.4807374 49.3327153 25.125808 57.9316089 21.5126852 57.7824425"></polygon>
                    <polygon id="Path" points="9.22148254 48.661458 14.5311163 48.8806642 14.1761869 57.4795579 8.86655317 57.2603516"></polygon>
                    <polygon id="Path" points="8.86655317 57.2603516 0.118103204 56.8991751 3.57230483 48.4282338 9.22148254 48.661458"></polygon>
                    <polygon id="Path" points="60.2937516 23.7310754 66.9543644 26.9830509 71.5291114 29.2166239 68.0439001 36.3564077 66.3198296 39.8883285 61.7450827 37.6547555 55.0844698 34.40278 56.8085403 30.8708592"></polygon>
                    <polygon id="Path" points="71.5291114 29.2166239 79.6472731 33.1802327 72.0895584 42.7053391 66.3198296 39.8883285"></polygon>
                    <polygon id="Path" points="62.244081 43.2535168 60.8894056 46.0286971 50.4270912 43.9438591 52.9735195 38.7272608"></polygon>
                    <polygon id="Path" points="64.3550314 38.9290361 67.3752928 40.4036475 72.0895584 42.7053391 70.6714129 44.4926502 66.0344544 42.7139543 63.7767438 46.6040605 60.8894056 46.0286971 63.0637208 41.5744074"></polygon>
                    <polygon id="Path" points="77.7785357 23.311675 80.0333671 31.4454538 75.0062294 28.9910057"></polygon>
                    <polygon id="Path" points="62.7724807 13.6444687 65.2142289 9.26050054 73.5218067 14.4267066 71.3088219 18.3999478"></polygon>
                    <polygon id="Path" points="71.3088219 18.3999478 69.5944343 21.4779968 67.4615632 25.3074002 62.2720338 22.773666 58.6678728 21.0139716 60.943415 16.9284133 62.7724807 13.6444687 66.2711652 15.593538"></polygon>
                    <polygon id="Path" points="75.0062294 28.9910057 70.6628299 26.8703857 67.768908 25.4574581 69.0508134 22.8313541 70.5412142 19.7781275 73.4351361 21.191055 77.7785357 23.311675 76.2881348 26.3649016"></polygon>
                    <polygon id="Path" points="65.5781964 0.0610123968 70.3918299 3.61867974 72.8159492 5.41030146 73.8537696 9.15399625 75.0073656 13.315325 71.49194 11.1291988 70.9128247 7.17554343 65.0729182 3.24688095"></polygon>
                </g>
                <g id="Group" transform="translate(402.706594, 622.701341)" fill="#9A979B" fill-rule="nonzero" stroke="#130F26" stroke-width="0.5">
                    <polygon id="Path" points="25.7288573 9.47292955 22.9694907 8.65736175 24.4746422 3.56383554 27.305479 4.13754349"></polygon>
                    <polygon id="Path" points="11.6575436 0.966274523 15.0576856 1.65535999 19.4891795 2.55346308 18.3969147 7.94411071 17.7284097 11.2433789 13.2969158 10.3452759 9.89677377 9.65619038 10.5652787 6.35692215"></polygon>
                    <polygon id="Path" points="5.50731096 1.74376716 5.62244925 1.35413201 7.07424806 0.0374067615 11.6575436 0.966274523 10.9522337 3.35308709"></polygon>
                    <polygon id="Path" points="3.7880629 7.56180979 0.00937906219 6.4449691 5.62244925 1.35413201"></polygon>
                </g>
                <g id="Group" transform="translate(232.628278, 427.160385)" fill-rule="nonzero" stroke-width="0.5">
                    <path d="M86.338498,112.907358 L69.6396819,106.096674" id="Path" stroke="#9A979B" fill="#000000"></path>
                    <path d="M89.3839396,110.408145 L52.2800215,95.2751525" id="Path" stroke="#9A979B" fill="#000000"></path>
                    <path d="M92.4293812,107.908932 L52.1018048,91.4611565" id="Path" stroke="#9A979B" fill="#000000"></path>
                    <path d="M94.0602231,104.832768 L51.923588,87.6471605" id="Path" stroke="#9A979B" fill="#000000"></path>
                    <path d="M95.3682759,101.624953 L53.0587352,84.3688255" id="Path" stroke="#9A979B" fill="#000000"></path>
                    <path d="M96.6763287,98.4171386 L54.3667879,81.1610109" id="Path" stroke="#9A979B" fill="#000000"></path>
                    <path d="M97.9843815,95.209324 L55.6748407,77.9531963" id="Path" stroke="#9A979B" fill="#000000"></path>
                    <path d="M99.2924343,92.0015094 L56.9828935,74.7453817" id="Path" stroke="#9A979B" fill="#000000"></path>
                    <path d="M100.600487,88.7936948 L58.2909463,71.5375671" id="Path" stroke="#9A979B" fill="#000000"></path>
                    <path d="M101.90854,85.5858801 L59.5989991,68.3297524" id="Path" stroke="#9A979B" fill="#000000"></path>
                    <path d="M103.216593,82.3780655 L60.9070519,65.1219378" id="Path" stroke="#9A979B" fill="#000000"></path>
                    <path d="M104.524645,79.1702509 L62.2151047,61.9141232" id="Path" stroke="#9A979B" fill="#000000"></path>
                    <path d="M105.832698,75.9624363 L63.5231575,58.7063086" id="Path" stroke="#9A979B" fill="#000000"></path>
                    <path d="M107.140751,72.7546217 L64.8312103,55.498494" id="Path" stroke="#9A979B" fill="#000000"></path>
                    <path d="M108.448804,69.546807 L66.1392631,52.2906793" id="Path" stroke="#9A979B" fill="#000000"></path>
                    <path d="M109.756857,66.3389924 L67.4473158,49.0828647" id="Path" stroke="#9A979B" fill="#000000"></path>
                    <path d="M111.064909,63.1311778 L68.7553686,45.8750501" id="Path" stroke="#9A979B" fill="#000000"></path>
                    <path d="M112.372962,59.9233632 L70.0634214,42.6672355" id="Path" stroke="#9A979B" fill="#000000"></path>
                    <path d="M113.681015,56.7155486 L71.3714742,39.4594209" id="Path" stroke="#9A979B" fill="#000000"></path>
                    <path d="M114.989068,53.507734 L72.679527,36.2516063" id="Path" stroke="#9A979B" fill="#000000"></path>
                    <path d="M116.297121,50.2999193 L73.9875798,33.0437916" id="Path" stroke="#9A979B" fill="#000000"></path>
                    <path d="M117.605173,47.0921047 L75.2956326,29.835977" id="Path" stroke="#9A979B" fill="#000000"></path>
                    <path d="M118.913226,43.8842901 L76.6036854,26.6281624" id="Path" stroke="#9A979B" fill="#000000"></path>
                    <path d="M119.848723,40.5245269 L77.9117382,23.4203478" id="Path" stroke="#9A979B" fill="#000000"></path>
                    <path d="M120.698652,37.1298647 L79.219791,20.2125332" id="Path" stroke="#9A979B" fill="#000000"></path>
                    <path d="M121.548582,33.7352025 L80.5278438,17.0047185" id="Path" stroke="#9A979B" fill="#000000"></path>
                    <path d="M120.948811,29.749274 L82.4244643,14.0369538" id="Path" stroke="#9A979B" fill="#000000"></path>
                    <path d="M119.82245,25.5485732 L84.6679329,11.2106525" id="Path" stroke="#9A979B" fill="#000000"></path>
                    <path d="M118.696089,21.3478723 L86.9114014,8.38435125" id="Path" stroke="#9A979B" fill="#000000"></path>
                    <path d="M96.0171638,8.35686595 L117.569727,17.1471714" id="Path" stroke="#9A979B" fill="#000000"></path>
                    <path d="M109.429472,10.0858238 L115.494122,12.5593175" id="Path" stroke="#9A979B" fill="#000000"></path>
                    <path d="M74.8422428,13.4030314 L45.2094127,86.0733597" id="Path" stroke="#9A979B" fill="#000000"></path>
                    <path d="M73.4013342,6.90014948 L39.0777211,91.0739602" id="Path" stroke="#9A979B" fill="#000000"></path>
                    <path d="M35.375831,90.1158156 L70.0782161,5.01312025" id="Path" stroke="#9A979B" fill="#000000"></path>
                    <path d="M31.9372162,88.5120258 L66.1900066,4.51189777" id="Path" stroke="#9A979B" fill="#000000"></path>
                    <path d="M28.4986014,86.9082359 L62.3017971,4.01067529" id="Path" stroke="#9A979B" fill="#000000"></path>
                    <path d="M25.0599866,85.3044461 L58.4135877,3.50945281" id="Path" stroke="#9A979B" fill="#000000"></path>
                    <path d="M21.6213717,83.7006562 L54.5253782,3.00823033" id="Path" stroke="#9A979B" fill="#000000"></path>
                    <path d="M18.1827569,82.0968663 L50.6371687,2.50700786" id="Path" stroke="#9A979B" fill="#000000"></path>
                    <path d="M14.7441421,80.4930765 L46.7489592,2.00578538" id="Path" stroke="#9A979B" fill="#000000"></path>
                    <path d="M11.3055273,78.8892866 L42.8607497,1.5045629" id="Path" stroke="#9A979B" fill="#000000"></path>
                    <path d="M7.86691248,77.2854968 L38.9725403,1.00334042" id="Path" stroke="#9A979B" fill="#000000"></path>
                    <path d="M4.42829766,75.6817069 L35.0843308,0.502117938" id="Path" stroke="#9A979B" fill="#000000"></path>
                    <path d="M1.58111423,72.6275152 L31.1961213,0.000895458229" id="Path" stroke="#9A979B" fill="#000000"></path>
                    <path d="M0.140205568,66.1246333 L27.088589,0.0375312858" id="Path" stroke="#9A979B" fill="#000000"></path>
                    <path d="M15.3516905,18.7841093 L20.9568973,5.03813176" id="Path" stroke="#9A979B" fill="#000000"></path>
                    <polygon id="Path" stroke="#130F26" fill="#9A979B" points="57.5922482 83.4491896 59.7486733 78.1608619 61.13738 74.755255 64.5821734 76.1602287 63.1934667 79.5658357 65.9255282 80.6801187 69.8089536 82.2639904 67.6525285 87.5523181 63.7691031 85.9684464 61.0370416 84.8541634"></polygon>
                </g>
                <g id="Group" transform="translate(347.166384, 678.943617)" fill="#000000" fill-rule="nonzero" stroke="#9A979B" stroke-width="0.5">
                    <path d="M119.396471,82.6359664 L72.2623189,83.7249946" id="Path"></path>
                    <path d="M121.149256,79.0909547 L69.7407533,80.2787412" id="Path"></path>
                    <path d="M122.902041,75.545943 L67.2191878,76.8324879" id="Path"></path>
                    <path d="M122.11503,72.059613 L66.8615906,73.3362363" id="Path"></path>
                    <path d="M121.311402,68.5736669 L66.7806791,69.8335919" id="Path"></path>
                    <path d="M120.507775,65.0877208 L66.6997675,66.3309476" id="Path"></path>
                    <path d="M119.704147,61.6017747 L66.618856,62.8283032" id="Path"></path>
                    <path d="M118.900519,58.1158286 L66.5379445,59.3256588" id="Path"></path>
                    <path d="M118.096892,54.6298825 L66.4570329,55.8230145" id="Path"></path>
                    <path d="M117.293264,51.1439364 L66.3761214,52.3203701" id="Path"></path>
                    <path d="M116.489637,47.6579902 L66.2952098,48.8177257" id="Path"></path>
                    <path d="M115.686009,44.1720441 L66.2142983,45.3150814" id="Path"></path>
                    <path d="M114.882382,40.686098 L66.1333868,41.812437" id="Path"></path>
                    <path d="M114.078754,37.2001519 L66.0524752,38.3097927" id="Path"></path>
                    <path d="M113.275127,33.7142058 L65.9715637,34.8071483" id="Path"></path>
                    <path d="M112.471499,30.2282597 L65.8906521,31.3045039" id="Path"></path>
                    <path d="M111.667872,26.7423136 L65.8097406,27.8018596" id="Path"></path>
                    <path d="M110.864244,23.2563675 L65.7288291,24.2992152" id="Path"></path>
                    <path d="M110.060617,19.7704214 L65.6479175,20.7965708" id="Path"></path>
                    <path d="M109.256989,16.2844753 L65.567006,17.2939265" id="Path"></path>
                    <path d="M108.453362,12.7985292 L65.4860944,13.7912821" id="Path"></path>
                    <path d="M105.986271,9.35101716 L65.4171015,10.2883624" id="Path"></path>
                    <path d="M103.464706,5.90476378 L67.1698867,6.74335069" id="Path"></path>
                    <path d="M78.9108974,2.9675624 L68.9226719,3.19833901" id="Path"></path>
                    <path d="M58.708108,7.2264607 L60.3484112,78.234859" id="Path"></path>
                    <path d="M56.6249116,84.9506884 L54.6934124,1.33647406" id="Path"></path>
                    <path d="M52.7483446,85.040256 L50.8087324,1.07483432" id="Path"></path>
                    <path d="M48.8717775,85.1298235 L46.9240524,0.813194591" id="Path"></path>
                    <path d="M44.9952104,85.2193911 L43.0393724,0.551554858" id="Path"></path>
                    <path d="M41.1186433,85.3089586 L39.1546923,0.289915124" id="Path"></path>
                    <path d="M37.2420762,85.3985262 L35.2715716,0.0957776134" id="Path"></path>
                    <path d="M33.3655091,85.4880938 L31.4601939,3.00738092" id="Path"></path>
                    <path d="M29.488942,85.5776613 L27.6726259,6.94970063" id="Path"></path>
                    <path d="M25.6123749,85.6672289 L23.9170349,12.2762995" id="Path"></path>
                    <path d="M21.7156612,84.8846546 L20.1614439,17.6028983" id="Path"></path>
                    <path d="M17.7837687,82.5791924 L16.4058529,22.9294972" id="Path"></path>
                    <path d="M13.7584104,76.2276199 L12.650262,28.256096" id="Path"></path>
                    <path d="M9.7050822,68.6652347 L8.89467097,33.5826948" id="Path"></path>
                    <path d="M5.65175401,61.1028496 L5.13907998,38.9092937" id="Path"></path>
                    <path d="M1.59842581,53.5404644 L1.45059346,47.1408312" id="Path"></path>
                </g>
                <g id="Group" transform="translate(271.104254, 613.891716)" fill-rule="nonzero" stroke-width="0.5">
                    <path d="M13.2629688,101.785161 L6.53757773,62.157117" id="Path" stroke="#9A979B" fill="#000000"></path>
                    <path d="M17.7591923,104.95446 L10.0403766,59.4728578" id="Path" stroke="#9A979B" fill="#000000"></path>
                    <path d="M21.6797483,104.731752 L13.5431756,56.7885986" id="Path" stroke="#9A979B" fill="#000000"></path>
                    <path d="M25.5507632,104.217134 L17.343258,55.8560242" id="Path" stroke="#9A979B" fill="#000000"></path>
                    <path d="M29.4217782,103.702515 L21.1907698,55.2029178" id="Path" stroke="#9A979B" fill="#000000"></path>
                    <path d="M33.2927931,103.187896 L25.0382816,54.5498115" id="Path" stroke="#9A979B" fill="#000000"></path>
                    <path d="M37.1638081,102.673277 L28.8857934,53.8967051" id="Path" stroke="#9A979B" fill="#000000"></path>
                    <path d="M41.034823,102.158658 L32.7333053,53.2435988" id="Path" stroke="#9A979B" fill="#000000"></path>
                    <path d="M44.9058379,101.64404 L36.5808171,52.5904925" id="Path" stroke="#9A979B" fill="#000000"></path>
                    <path d="M48.7768529,101.129421 L40.4283289,51.9373861" id="Path" stroke="#9A979B" fill="#000000"></path>
                    <path d="M52.6478678,100.614802 L44.2758407,51.2842798" id="Path" stroke="#9A979B" fill="#000000"></path>
                    <path d="M56.5188827,100.100183 L48.1233525,50.6311734" id="Path" stroke="#9A979B" fill="#000000"></path>
                    <path d="M60.2453534,98.7338661 L51.9708643,49.9780671" id="Path" stroke="#9A979B" fill="#000000"></path>
                    <path d="M63.8359938,96.5671952 L55.8183761,49.3249608" id="Path" stroke="#9A979B" fill="#000000"></path>
                    <path d="M67.3050617,93.6841825 L59.6658879,48.6718544" id="Path" stroke="#9A979B" fill="#000000"></path>
                    <path d="M70.4954653,89.1591955 L63.5133997,48.0187481" id="Path" stroke="#9A979B" fill="#000000"></path>
                    <path d="M73.6858689,84.6342086 L67.3609115,47.3656417" id="Path" stroke="#9A979B" fill="#000000"></path>
                    <path d="M76.8762726,80.1092216 L71.2084233,46.7125354" id="Path" stroke="#9A979B" fill="#000000"></path>
                    <path d="M80.0666762,75.5842346 L75.0559351,46.0594291" id="Path" stroke="#9A979B" fill="#000000"></path>
                    <path d="M83.2570798,71.0592477 L78.903447,45.4063227" id="Path" stroke="#9A979B" fill="#000000"></path>
                    <path d="M86.4474835,66.5342607 L82.7509588,44.7532164" id="Path" stroke="#9A979B" fill="#000000"></path>
                    <path d="M89.6358321,61.9971652 L86.5984706,44.10011" id="Path" stroke="#9A979B" fill="#000000"></path>
                    <path d="M92.6861149,56.646544 L90.5557015,44.0935018" id="Path" stroke="#9A979B" fill="#000000"></path>
                    <path d="M94.3765791,36.0597905 L10.0905889,50.3671448" id="Path" stroke="#9A979B" fill="#000000"></path>
                    <path d="M3.30296357,48.2619948 L97.8704856,32.209374" id="Path" stroke="#9A979B" fill="#000000"></path>
                    <path d="M2.76563158,45.0958718 L98.5752387,28.8324099" id="Path" stroke="#9A979B" fill="#000000"></path>
                    <path d="M2.22829959,41.9297488 L99.2799918,25.4554457" id="Path" stroke="#9A979B" fill="#000000"></path>
                    <path d="M1.6909676,38.7636258 L96.8207318,22.6155656" id="Path" stroke="#9A979B" fill="#000000"></path>
                    <path d="M1.15363561,35.5975028 L93.0384595,20.0002639" id="Path" stroke="#9A979B" fill="#000000"></path>
                    <path d="M0.616303626,32.4313798 L88.3750644,17.5345306" id="Path" stroke="#9A979B" fill="#000000"></path>
                    <path d="M0.0789716375,29.2652568 L83.7116694,15.0687974" id="Path" stroke="#9A979B" fill="#000000"></path>
                    <path d="M2.99616702,25.5127357 L79.0482743,12.6030642" id="Path" stroke="#9A979B" fill="#000000"></path>
                    <path d="M8.92000933,21.2498431 L74.3848793,10.137331" id="Path" stroke="#9A979B" fill="#000000"></path>
                    <path d="M17.7228937,16.4982397 L69.7214842,7.67159776" id="Path" stroke="#9A979B" fill="#000000"></path>
                    <path d="M26.525778,11.7466363 L65.0580892,5.20586454" id="Path" stroke="#9A979B" fill="#000000"></path>
                    <path d="M35.3286623,6.99503296 L60.3946941,2.74013132" id="Path" stroke="#9A979B" fill="#000000"></path>
                    <path d="M44.1315466,2.24342958 L52.6737999,0.793401593" id="Path" stroke="#9A979B" fill="#000000"></path>
                    <polygon id="Path" stroke="#130F26" fill="#9A979B" points="82.43206 38.4230655 79.2477713 38.9635912 75.8922493 39.5331834 75.3997757 36.6313798 74.6218788 32.0477755 77.9774009 31.4781833 81.1616896 30.9376576 80.624585 27.7728743 84.2326651 27.160411 84.7697697 30.3251942 85.5476666 34.9087985 81.9395864 35.5212619"></polygon>
                </g>
                <g id="Group" transform="translate(226.195965, 507.479608)" fill-rule="nonzero" stroke-width="0.5">
                    <path d="M0.929669304,104.0993 L2.12848199,81.4682238" id="Path" stroke="#9A979B" fill="#000000"></path>
                    <path d="M5.48567719,109.168597 L7.01638905,80.2719584" id="Path" stroke="#9A979B" fill="#000000"></path>
                    <path d="M10.1801368,111.624214 L11.8835526,79.467287" id="Path" stroke="#9A979B" fill="#000000"></path>
                    <path d="M14.8745965,114.079831 L16.6945884,79.7221893" id="Path" stroke="#9A979B" fill="#000000"></path>
                    <path d="M19.5690561,116.535448 L21.5056243,79.9770916" id="Path" stroke="#9A979B" fill="#000000"></path>
                    <path d="M24.2635157,118.991065 L26.3166601,80.2319939" id="Path" stroke="#9A979B" fill="#000000"></path>
                    <path d="M28.9579754,121.446682 L31.127696,80.4868962" id="Path" stroke="#9A979B" fill="#000000"></path>
                    <path d="M33.652435,123.902299 L35.9387318,80.7417985" id="Path" stroke="#9A979B" fill="#000000"></path>
                    <path d="M38.3828699,125.678779 L40.7497676,80.9967008" id="Path" stroke="#9A979B" fill="#000000"></path>
                    <path d="M43.2269854,125.309208 L45.5608035,81.2516031" id="Path" stroke="#9A979B" fill="#000000"></path>
                    <path d="M48.1101839,124.201829 L50.3718393,81.5065054" id="Path" stroke="#9A979B" fill="#000000"></path>
                    <path d="M53.0767314,121.520996 L55.1828752,81.7614077" id="Path" stroke="#9A979B" fill="#000000"></path>
                    <path d="M58.043279,118.840163 L59.993911,82.01631" id="Path" stroke="#9A979B" fill="#000000"></path>
                    <path d="M63.0098265,116.15933 L64.8049469,82.2712123" id="Path" stroke="#9A979B" fill="#000000"></path>
                    <path d="M67.976374,113.478497 L69.6159827,82.5261146" id="Path" stroke="#9A979B" fill="#000000"></path>
                    <path d="M72.9429216,110.797663 L74.4270185,82.7810169" id="Path" stroke="#9A979B" fill="#000000"></path>
                    <path d="M77.9094691,108.11683 L79.2380544,83.0359192" id="Path" stroke="#9A979B" fill="#000000"></path>
                    <path d="M82.8760166,105.435997 L84.0490902,83.2908215" id="Path" stroke="#9A979B" fill="#000000"></path>
                    <path d="M87.8425642,102.755164 L88.8235174,84.2368186" id="Path" stroke="#9A979B" fill="#000000"></path>
                    <path d="M92.8795635,98.7443487 L93.5916223,85.3021679" id="Path" stroke="#9A979B" fill="#000000"></path>
                    <path d="M94.6099796,50.1217222 L93.2757217,75.3097198" id="Path" stroke="#9A979B" fill="#000000"></path>
                    <path d="M91.3149675,39.2436397 L89.2726451,77.7984147" id="Path" stroke="#9A979B" fill="#000000"></path>
                    <path d="M87.5370605,37.481602 L85.4122341,77.5938792" id="Path" stroke="#9A979B" fill="#000000"></path>
                    <path d="M83.7591535,35.7195643 L81.5518232,77.3893437" id="Path" stroke="#9A979B" fill="#000000"></path>
                    <path d="M79.9812466,33.9575266 L77.6914123,77.1848082" id="Path" stroke="#9A979B" fill="#000000"></path>
                    <path d="M76.2033396,32.195489 L73.8310014,76.9802727" id="Path" stroke="#9A979B" fill="#000000"></path>
                    <path d="M72.4254326,30.4334513 L69.9705904,76.7757372" id="Path" stroke="#9A979B" fill="#000000"></path>
                    <path d="M68.6475257,28.6714136 L66.1101795,76.5712017" id="Path" stroke="#9A979B" fill="#000000"></path>
                    <path d="M62.4440687,72.6986854 L64.6782524,30.5219708" id="Path" stroke="#9A979B" fill="#000000"></path>
                    <path d="M6.25662809,72.5346163 L51.1581291,74.9136249" id="Path" stroke="#9A979B" fill="#000000"></path>
                    <path d="M3.64030945,68.653366 L55.2358955,71.3870462" id="Path" stroke="#9A979B" fill="#000000"></path>
                    <path d="M1.62850116,64.8041444 L56.0755863,67.6889051" id="Path" stroke="#9A979B" fill="#000000"></path>
                    <path d="M1.71192461,61.0659342 L56.2732859,63.9567495" id="Path" stroke="#9A979B" fill="#000000"></path>
                    <path d="M1.79534806,57.3277239 L56.4709856,60.2245939" id="Path" stroke="#9A979B" fill="#000000"></path>
                    <path d="M1.87877151,53.5895136 L56.6686852,56.4924383" id="Path" stroke="#9A979B" fill="#000000"></path>
                    <path d="M1.96219496,49.8513033 L56.8663849,52.7602827" id="Path" stroke="#9A979B" fill="#000000"></path>
                    <path d="M2.0456184,46.113093 L57.0640845,49.0281271" id="Path" stroke="#9A979B" fill="#000000"></path>
                    <path d="M2.12904185,42.3748827 L57.2617841,45.2959715" id="Path" stroke="#9A979B" fill="#000000"></path>
                    <path d="M2.2124653,38.6366725 L57.4594838,41.5638159" id="Path" stroke="#9A979B" fill="#000000"></path>
                    <path d="M2.29588875,34.8984622 L57.6571834,37.8316603" id="Path" stroke="#9A979B" fill="#000000"></path>
                    <path d="M2.3793122,31.1602519 L57.854883,34.0995046" id="Path" stroke="#9A979B" fill="#000000"></path>
                    <path d="M2.46273565,27.4220416 L58.0525827,30.367349" id="Path" stroke="#9A979B" fill="#000000"></path>
                    <path d="M2.5461591,23.6838313 L56.3899271,26.5366265" id="Path" stroke="#9A979B" fill="#000000"></path>
                    <path d="M2.62958255,19.945621 L53.7736084,22.6553763" id="Path" stroke="#9A979B" fill="#000000"></path>
                    <path d="M2.71300599,16.2074108 L46.9491531,18.551167" id="Path" stroke="#9A979B" fill="#000000"></path>
                    <path d="M2.79642944,12.4692005 L37.8963654,14.3288944" id="Path" stroke="#9A979B" fill="#000000"></path>
                    <path d="M2.87985289,8.73099019 L28.8435776,10.1066218" id="Path" stroke="#9A979B" fill="#000000"></path>
                    <path d="M3.62417546,5.02779621 L19.7907899,5.8843492" id="Path" stroke="#9A979B" fill="#000000"></path>
                    <path d="M7.70194191,1.50121753 L10.7380022,1.66207659" id="Path" stroke="#9A979B" fill="#000000"></path>
                    <polygon id="Path" stroke="#130F26" fill="#9A979B" points="8.27078847 21.1881438 8.32717277 18.6615597 8.43799859 13.6954474 8.50347412 10.7614845 13.7042403 10.8775707 18.2952634 10.9800469 18.2297878 13.9140098 18.118962 18.8801222 18.0625777 21.4067062 13.4715546 21.3042301"></polygon>
                </g>
                <g id="Group" transform="translate(0.000000, 620.996761)" fill-rule="nonzero" stroke-width="0.5">
                    <path d="M127.840364,104.936989 L127.346731,107.835765" id="Path" stroke="#9A979B" fill="#000000"></path>
                    <path d="M124.413472,96.3421462 L121.808795,111.637641" id="Path" stroke="#9A979B" fill="#000000"></path>
                    <path d="M120.986579,87.7473034 L117.056133,110.828142" id="Path" stroke="#9A979B" fill="#000000"></path>
                    <path d="M117.559686,79.1524605 L112.303471,110.018643" id="Path" stroke="#9A979B" fill="#000000"></path>
                    <path d="M114.132793,70.5576177 L107.550808,109.209145" id="Path" stroke="#9A979B" fill="#000000"></path>
                    <path d="M110.705901,61.9627749 L102.798146,108.399646" id="Path" stroke="#9A979B" fill="#000000"></path>
                    <path d="M107.279008,53.367932 L98.0454836,107.590147" id="Path" stroke="#9A979B" fill="#000000"></path>
                    <path d="M103.067328,49.3816083 L93.2928213,106.780648" id="Path" stroke="#9A979B" fill="#000000"></path>
                    <path d="M98.40435,48.0454565 L88.540159,105.971149" id="Path" stroke="#9A979B" fill="#000000"></path>
                    <path d="M93.1575188,50.1378757 L83.7874967,105.16165" id="Path" stroke="#9A979B" fill="#000000"></path>
                    <path d="M87.9106876,52.2302949 L79.0348343,104.352152" id="Path" stroke="#9A979B" fill="#000000"></path>
                    <path d="M82.6638564,54.3227141 L74.282172,103.542653" id="Path" stroke="#9A979B" fill="#000000"></path>
                    <path d="M77.4170252,56.4151332 L69.5295097,102.733154" id="Path" stroke="#9A979B" fill="#000000"></path>
                    <path d="M72.170194,58.5075524 L64.9275779,101.038517" id="Path" stroke="#9A979B" fill="#000000"></path>
                    <path d="M60.6246423,97.5880783 L66.4097522,63.6160583" id="Path" stroke="#9A979B" fill="#000000"></path>
                    <path d="M0.105701459,88.1769705 L54.7442413,66.3872988" id="Path" stroke="#9A979B" fill="#000000"></path>
                    <path d="M2.53049173,91.3215235 L58.7926555,68.8843559" id="Path" stroke="#9A979B" fill="#000000"></path>
                    <path d="M9.75486701,92.5520177 L58.0414847,73.2954719" id="Path" stroke="#9A979B" fill="#000000"></path>
                    <path d="M16.9792423,93.7825118 L57.2903139,77.7065878" id="Path" stroke="#9A979B" fill="#000000"></path>
                    <path d="M24.2036176,95.013006 L56.539143,82.1177038" id="Path" stroke="#9A979B" fill="#000000"></path>
                    <path d="M31.4279928,96.2435002 L55.7879722,86.5288198" id="Path" stroke="#9A979B" fill="#000000"></path>
                    <path d="M38.6523681,97.4739943 L55.0368014,90.9399357" id="Path" stroke="#9A979B" fill="#000000"></path>
                    <path d="M45.8767434,98.7044885 L54.2856306,95.3510517" id="Path" stroke="#9A979B" fill="#000000"></path>
                    <path d="M210.854683,123.17739 L196.278439,86.6193371" id="Path" stroke="#9A979B" fill="#000000"></path>
                    <path d="M207.107625,125.25137 L191.171784,85.283369" id="Path" stroke="#9A979B" fill="#000000"></path>
                    <path d="M202.591713,125.397019 L186.833983,85.8757325" id="Path" stroke="#9A979B" fill="#000000"></path>
                    <path d="M197.684471,124.561191 L182.887512,87.4495724" id="Path" stroke="#9A979B" fill="#000000"></path>
                    <path d="M192.777229,123.725363 L178.94104,89.0234123" id="Path" stroke="#9A979B" fill="#000000"></path>
                    <path d="M187.869987,122.889536 L174.994569,90.5972522" id="Path" stroke="#9A979B" fill="#000000"></path>
                    <path d="M182.962745,122.053708 L171.048098,92.1710921" id="Path" stroke="#9A979B" fill="#000000"></path>
                    <path d="M178.055503,121.217881 L167.101626,93.744932" id="Path" stroke="#9A979B" fill="#000000"></path>
                    <path d="M173.148261,120.382053 L163.155155,95.3187719" id="Path" stroke="#9A979B" fill="#000000"></path>
                    <path d="M168.241019,119.546225 L159.208684,96.8926118" id="Path" stroke="#9A979B" fill="#000000"></path>
                    <path d="M163.333777,118.710398 L155.262213,98.4664517" id="Path" stroke="#9A979B" fill="#000000"></path>
                    <path d="M158.426536,117.87457 L151.315741,100.040292" id="Path" stroke="#9A979B" fill="#000000"></path>
                    <path d="M153.519294,117.038742 L147.36927,101.614131" id="Path" stroke="#9A979B" fill="#000000"></path>
                    <path d="M148.612052,116.202915 L143.422799,103.187971" id="Path" stroke="#9A979B" fill="#000000"></path>
                    <path d="M143.637548,115.19839 L139.543589,104.930508" id="Path" stroke="#9A979B" fill="#000000"></path>
                    <path d="M138.530892,113.862422 L135.796532,107.004489" id="Path" stroke="#9A979B" fill="#000000"></path>
                    <path d="M115.135906,42.3032996 L165.468987,22.2306312" id="Path" stroke="#9A979B" fill="#000000"></path>
                    <path d="M112.511705,47.9950253 L171.289223,24.5547427" id="Path" stroke="#9A979B" fill="#000000"></path>
                    <path d="M113.097329,52.4066828 L173.899633,28.1589224" id="Path" stroke="#9A979B" fill="#000000"></path>
                    <path d="M114.695347,56.4146013 L175.49765,32.166841" id="Path" stroke="#9A979B" fill="#000000"></path>
                    <path d="M116.293364,60.4225199 L177.095667,36.1747595" id="Path" stroke="#9A979B" fill="#000000"></path>
                    <path d="M117.891381,64.4304385 L178.693684,40.1826781" id="Path" stroke="#9A979B" fill="#000000"></path>
                    <path d="M119.489398,68.4383571 L180.291702,44.1905967" id="Path" stroke="#9A979B" fill="#000000"></path>
                    <path d="M121.087416,72.4462756 L181.889719,48.1985153" id="Path" stroke="#9A979B" fill="#000000"></path>
                    <path d="M122.685433,76.4541942 L183.487736,52.2064338" id="Path" stroke="#9A979B" fill="#000000"></path>
                    <path d="M124.28345,80.4621128 L185.085753,56.2143524" id="Path" stroke="#9A979B" fill="#000000"></path>
                    <path d="M125.881468,84.4700314 L186.683771,60.222271" id="Path" stroke="#9A979B" fill="#000000"></path>
                    <path d="M127.479485,88.4779499 L188.281788,64.2301896" id="Path" stroke="#9A979B" fill="#000000"></path>
                    <path d="M129.077502,92.4858685 L189.879805,68.2381081" id="Path" stroke="#9A979B" fill="#000000"></path>
                    <path d="M190.46543,72.6497656 L131.687912,96.0900482" id="Path" stroke="#9A979B" fill="#000000"></path>
                    <path d="M187.841228,78.3414913 L137.508148,98.4141597" id="Path" stroke="#9A979B" fill="#000000"></path>
                    <path d="M178.49215,21.7901957 L197.861081,70.3685817" id="Path" stroke="#9A979B" fill="#000000"></path>
                    <path d="M180.661354,15.2416315 L203.01661,71.3098911" id="Path" stroke="#9A979B" fill="#000000"></path>
                    <path d="M184.785762,13.5968311 L207.620258,70.8670513" id="Path" stroke="#9A979B" fill="#000000"></path>
                    <path d="M188.91017,11.9520306 L211.454848,68.4953712" id="Path" stroke="#9A979B" fill="#000000"></path>
                    <path d="M193.034578,10.3072301 L215.289438,66.1236912" id="Path" stroke="#9A979B" fill="#000000"></path>
                    <path d="M197.158986,8.66242967 L219.124028,63.7520111" id="Path" stroke="#9A979B" fill="#000000"></path>
                    <path d="M201.283394,7.01762921 L222.958618,61.3803311" id="Path" stroke="#9A979B" fill="#000000"></path>
                    <path d="M205.407802,5.37282875 L226.793208,59.008651" id="Path" stroke="#9A979B" fill="#000000"></path>
                    <path d="M209.53221,3.72802829 L230.627799,56.636971" id="Path" stroke="#9A979B" fill="#000000"></path>
                    <path d="M213.656618,2.08322783 L234.462389,54.2652909" id="Path" stroke="#9A979B" fill="#000000"></path>
                    <path d="M217.781025,0.438427371 L238.296979,51.8936109" id="Path" stroke="#9A979B" fill="#000000"></path>
                    <path d="M222.402506,0.0403133065 L242.131569,49.5219308" id="Path" stroke="#9A979B" fill="#000000"></path>
                    <path d="M227.232814,0.165950282 L245.966159,47.1502507" id="Path" stroke="#9A979B" fill="#000000"></path>
                    <path d="M233.101388,2.89561769 L249.80075,44.7785707" id="Path" stroke="#9A979B" fill="#000000"></path>
                    <path d="M239.141307,6.05502911 L253.63534,42.4068906" id="Path" stroke="#9A979B" fill="#000000"></path>
                    <path d="M245.181227,9.21444052 L257.46993,40.0352106" id="Path" stroke="#9A979B" fill="#000000"></path>
                    <path d="M251.221146,12.3738519 L261.248433,37.522861" id="Path" stroke="#9A979B" fill="#000000"></path>
                    <path d="M257.261065,15.5332634 L264.807192,34.4593802" id="Path" stroke="#9A979B" fill="#000000"></path>
                    <path d="M263.751757,19.8232376 L265.827096,25.028307" id="Path" stroke="#9A979B" fill="#000000"></path>
                    <path d="M273.377332,101.506233 L224.036879,123.944251" id="Path" stroke="#9A979B" fill="#000000"></path>
                    <path d="M276.485298,95.9814592 L218.126073,122.520846" id="Path" stroke="#9A979B" fill="#000000"></path>
                    <path d="M277.121876,91.5805721 L216.398669,119.195001" id="Path" stroke="#9A979B" fill="#000000"></path>
                    <path d="M276.474112,87.763751 L215.011004,115.714657" id="Path" stroke="#9A979B" fill="#000000"></path>
                    <path d="M275.826348,83.9469299 L213.623338,112.234313" id="Path" stroke="#9A979B" fill="#000000"></path>
                    <path d="M275.178584,80.1301088 L212.235673,108.753969" id="Path" stroke="#9A979B" fill="#000000"></path>
                    <path d="M274.53082,76.3132876 L210.848007,105.273624" id="Path" stroke="#9A979B" fill="#000000"></path>
                    <path d="M273.883056,72.4964665 L209.460342,101.79328" id="Path" stroke="#9A979B" fill="#000000"></path>
                    <path d="M273.235292,68.6796454 L208.072676,98.312936" id="Path" stroke="#9A979B" fill="#000000"></path>
                    <path d="M272.587528,64.8628243 L206.685011,94.8325919" id="Path" stroke="#9A979B" fill="#000000"></path>
                    <path d="M271.939765,61.0460032 L205.297346,91.3522477" id="Path" stroke="#9A979B" fill="#000000"></path>
                    <path d="M271.292001,57.2291821 L203.90968,87.8719035" id="Path" stroke="#9A979B" fill="#000000"></path>
                    <path d="M270.644237,53.412361 L204.665654,83.4167201" id="Path" stroke="#9A979B" fill="#000000"></path>
                    <path d="M269.996473,49.5955399 L207.77362,77.8919467" id="Path" stroke="#9A979B" fill="#000000"></path>
                    <path d="M230.770339,63.3225825 L268.953395,45.9584913" id="Path" stroke="#9A979B" fill="#000000"></path>
                    <path d="M255.88006,47.7923115 L263.04259,44.5350862" id="Path" stroke="#9A979B" fill="#000000"></path>
                    <polygon id="Path" stroke="#130F26" fill="#9A979B" points="3.48018608 84.8090147 5.54696562 83.9847898 9.66663003 82.341881 10.7531141 85.0668451 14.4982045 83.5733152 16.011612 87.3690276 12.2665216 88.8625575 13.5267842 92.0233683 9.40711982 93.666277 8.14685714 90.5054662 6.08007761 91.3296912 4.56667014 87.5339788"></polygon>
                </g>
            </g>
        </g>
    </g>
</svg>