<?xml version="1.0" encoding="UTF-8"?>
<svg width="2384px" height="3370px" viewBox="0 0 2384 3370" version="1.1" xmlns="http://www.w3.org/2000/svg" xmlns:xlink="http://www.w3.org/1999/xlink">
    <!-- Generator: Sketch 55 (78076) - https://sketchapp.com -->
    <title>A0</title>
    <desc>Created with Sketch.</desc>
    <g id="A0" stroke="none" stroke-width="1" fill="none" fill-rule="evenodd">
        <g id="town" transform="translate(-1951.000000, -1787.000000)">
            <g id="map" transform="translate(0.000000, 0.500000)">
                <g id="Group" transform="translate(3561.267983, 2851.994688)" stroke-linejoin="round">
                    <path d="M0.872512578,992.565246 L315.434824,751.97853 C395.153432,691.00734 544.329069,631.314607 746.251684,567.680309 C841.802339,537.568284 965.231795,514.129395 1112.20292,500.883433 C1308.98136,483.148523 1604.85227,537.618577 1971.79961,457.226223 C2458.83083,350.525391 2458.83083,350.525391 3397.57305,0.195011314" id="Path" stroke="#6C6974" stroke-width="2.1"></path>
                    <path d="M0.872512578,992.565246 L315.434824,751.97853 C395.153432,691.00734 544.329069,631.314607 746.251684,567.680309 C841.802339,537.568284 965.231795,514.129395 1112.20292,500.883433 C1308.98136,483.148523 1604.85227,537.618577 1971.79961,457.226223 C2458.83083,350.525391 2458.83083,350.525391 3397.57305,0.195011314" id="Path" stroke="#CCCAC2" stroke-width="1.9" stroke-linecap="round"></path>
                </g>
                <g id="Group" transform="translate(3044.734136, 0.000000)" stroke-linejoin="round">
                    <path d="M226.632782,3514.33001 L210.275581,3271.56005 L78.9297397,3042.54988 C33.5592735,2963.44346 -39.7608949,2832.15444 29.0994326,2757.81098 C97.8551922,2683.58042 170.327249,2616.71679 228.447563,2542.5894 C261.376046,2500.59199 368.466242,2452.98429 396.959641,2327.66694 C424.130335,2208.167 571.474489,2000.50918 542.775104,1686.35322 C491.486643,1124.9274 491.486643,1124.9274 388.755701,0.389776181" id="Path" stroke="#6C6974" stroke-width="2.1"></path>
                    <path d="M226.632782,3514.33001 L210.275581,3271.56005 L78.9297397,3042.54988 C33.5592735,2963.44346 -39.7608949,2832.15444 29.0994326,2757.81098 C97.8551922,2683.58042 170.327249,2616.71679 228.447563,2542.5894 C261.376046,2500.59199 368.466242,2452.98429 396.959641,2327.66694 C424.130335,2208.167 571.474489,2000.50918 542.775104,1686.35322 C491.486643,1124.9274 491.486643,1124.9274 388.755701,0.389776181" id="Path" stroke="#CCCAC2" stroke-width="1.9" stroke-linecap="round"></path>
                </g>
                <g id="Group" transform="translate(1586.013535, 4275.069690)" stroke-linejoin="round">
                    <polyline id="Path" stroke="#9A979B" stroke-width="3.9989582" points="3375.41983 646.948521 3271.84744 601.473088 3218.14324 577.893233 3179.7831 561.05048 3145.25897 545.892003 3114.57085 532.4178 3083.88274 518.943598 3053.19462 505.469396 3022.50651 491.995193 2991.81839 478.520991 2961.45402 467.144631 2931.41337 457.866113 2901.69646 450.685437 2872.30329 445.602604 2843.23386 442.617613 2814.48816 441.730464 2786.06619 442.941157 2757.96796 446.249693 2729.86973 449.558229 2701.7715 452.866764 2673.67327 456.1753 2645.57504 459.483835 2617.47681 462.792371 2589.37858 466.100907 2561.28035 469.409442 2533.18213 472.717978 2506.03645 474.294526 2479.84332 474.139087 2454.60275 472.251661 2430.31473 468.632247 2406.97926 463.280846 2384.59635 456.197458 2363.16599 447.382082 2342.68818 436.834719 2322.21036 426.287356 2301.73255 415.739993 2281.25474 405.19263 2260.77693 394.645267 2240.29912 384.097904 2219.82131 373.550541 2199.3435 363.003178 2178.86569 352.455815 2158.14152 342.453604 2137.17098 332.996547 2115.95408 324.084642 2094.49082 315.71789 2072.7812 307.896291 2050.82521 300.619844 2028.62286 293.88855 2006.17415 287.702409 1983.72544 281.516268 1961.27672 275.330127 1938.82801 269.143986 1916.3793 262.957845 1893.93059 256.771704 1871.48188 250.585562 1849.03316 244.399421 1826.58445 238.21328 1805.09149 231.470804 1784.55428 224.171992 1764.97281 216.316845 1746.3471 207.905362 1728.67713 198.937545 1711.96291 189.413391 1696.20445 179.332903 1681.40173 168.696079 1666.59901 158.059255 1651.7963 147.422431 1636.99358 136.785607 1622.19086 126.148784 1605.5378 114.182357 1587.03441 100.886327 1561.12965 82.2718852 1511.17048 46.3726047 1455.6994 35.1335844 1426.93662 29.3059443 1406.39177 25.1433442 1387.90141 21.3970041 1371.46553 18.066924 1355.02966 14.7368439 1338.59378 11.4067638 1322.15791 8.07668375 1305.72203 4.74660366 1289.82553 3.20656493 1274.46841 3.45656753 1259.65067 5.49661148 1245.37231 9.32669677 1231.63332 14.9468234 1218.43372 22.3569914 1205.77349 31.5572007 1193.65264 42.5474514 1181.53179 53.537702 1169.41094 64.5279527 1157.29009 75.5182033 1145.16924 86.508454 1133.04839 97.4987047 1120.92754 108.488955 1108.80669 119.479206 1096.68584 130.469457 1085.66378 142.080251 1075.74052 154.311588 1066.91604 167.16347 1059.19036 180.635894 1052.56348 194.728862 1047.03538 209.442374 1042.60608 224.776429 1039.27557 240.731028 1035.94506 256.685626 1032.61455 272.640225 1029.28404 288.594823 1025.95353 304.549422 1022.62303 320.50402 1019.29252 336.458619 1015.96201 352.413218 1012.6315 368.367816 1007.96224 384.816662 1001.95423 401.759757 994.60747 419.197098 985.921962 437.128688 975.897704 455.554526 964.534696 474.474611 951.832938 493.888944 937.79243 513.797525 923.751923 533.706106 909.711415 553.614686 895.670907 573.523267 881.6304 593.431848 867.589892 613.340429 853.549385 633.24901 839.508877 653.157591 825.46837 673.066171 810.103006 690.895521 793.412788 706.64564 775.397714 720.316528 756.057784 731.908184 735.392999 741.42061 713.403358 748.853805 690.088862 754.207768 665.449511 757.482501 640.810159 760.757234 616.170807 764.031966 591.531456 767.306699 566.892104 770.581432 542.252752 773.856164 517.613401 777.130897 492.974049 780.40563 468.334697 783.680362 443.791334 787.902366 419.34396 793.071641 394.992574 799.188186 370.737177 806.252003 346.577768 814.26309 322.514348 823.221449 298.546917 833.127079 274.675474 843.97998 250.804032 854.83288 226.932589 865.685781 203.061146 876.538682 179.189703 887.391582 152.33433 899.601095 122.495027 913.167221 80.7200019 932.159798 0.153882647 968.788337"></polyline>
                    <polyline id="Path" stroke="#6C6974" stroke-width="3.7989582" stroke-linecap="round" points="3375.41983 646.948521 3271.84744 601.473088 3218.14324 577.893233 3179.7831 561.05048 3145.25897 545.892003 3114.57085 532.4178 3083.88274 518.943598 3053.19462 505.469396 3022.50651 491.995193 2991.81839 478.520991 2961.45402 467.144631 2931.41337 457.866113 2901.69646 450.685437 2872.30329 445.602604 2843.23386 442.617613 2814.48816 441.730464 2786.06619 442.941157 2757.96796 446.249693 2729.86973 449.558229 2701.7715 452.866764 2673.67327 456.1753 2645.57504 459.483835 2617.47681 462.792371 2589.37858 466.100907 2561.28035 469.409442 2533.18213 472.717978 2506.03645 474.294526 2479.84332 474.139087 2454.60275 472.251661 2430.31473 468.632247 2406.97926 463.280846 2384.59635 456.197458 2363.16599 447.382082 2342.68818 436.834719 2322.21036 426.287356 2301.73255 415.739993 2281.25474 405.19263 2260.77693 394.645267 2240.29912 384.097904 2219.82131 373.550541 2199.3435 363.003178 2178.86569 352.455815 2158.14152 342.453604 2137.17098 332.996547 2115.95408 324.084642 2094.49082 315.71789 2072.7812 307.896291 2050.82521 300.619844 2028.62286 293.88855 2006.17415 287.702409 1983.72544 281.516268 1961.27672 275.330127 1938.82801 269.143986 1916.3793 262.957845 1893.93059 256.771704 1871.48188 250.585562 1849.03316 244.399421 1826.58445 238.21328 1805.09149 231.470804 1784.55428 224.171992 1764.97281 216.316845 1746.3471 207.905362 1728.67713 198.937545 1711.96291 189.413391 1696.20445 179.332903 1681.40173 168.696079 1666.59901 158.059255 1651.7963 147.422431 1636.99358 136.785607 1622.19086 126.148784 1605.5378 114.182357 1587.03441 100.886327 1561.12965 82.2718852 1511.17048 46.3726047 1455.6994 35.1335844 1426.93662 29.3059443 1406.39177 25.1433442 1387.90141 21.3970041 1371.46553 18.066924 1355.02966 14.7368439 1338.59378 11.4067638 1322.15791 8.07668375 1305.72203 4.74660366 1289.82553 3.20656493 1274.46841 3.45656753 1259.65067 5.49661148 1245.37231 9.32669677 1231.63332 14.9468234 1218.43372 22.3569914 1205.77349 31.5572007 1193.65264 42.5474514 1181.53179 53.537702 1169.41094 64.5279527 1157.29009 75.5182033 1145.16924 86.508454 1133.04839 97.4987047 1120.92754 108.488955 1108.80669 119.479206 1096.68584 130.469457 1085.66378 142.080251 1075.74052 154.311588 1066.91604 167.16347 1059.19036 180.635894 1052.56348 194.728862 1047.03538 209.442374 1042.60608 224.776429 1039.27557 240.731028 1035.94506 256.685626 1032.61455 272.640225 1029.28404 288.594823 1025.95353 304.549422 1022.62303 320.50402 1019.29252 336.458619 1015.96201 352.413218 1012.6315 368.367816 1007.96224 384.816662 1001.95423 401.759757 994.60747 419.197098 985.921962 437.128688 975.897704 455.554526 964.534696 474.474611 951.832938 493.888944 937.79243 513.797525 923.751923 533.706106 909.711415 553.614686 895.670907 573.523267 881.6304 593.431848 867.589892 613.340429 853.549385 633.24901 839.508877 653.157591 825.46837 673.066171 810.103006 690.895521 793.412788 706.64564 775.397714 720.316528 756.057784 731.908184 735.392999 741.42061 713.403358 748.853805 690.088862 754.207768 665.449511 757.482501 640.810159 760.757234 616.170807 764.031966 591.531456 767.306699 566.892104 770.581432 542.252752 773.856164 517.613401 777.130897 492.974049 780.40563 468.334697 783.680362 443.791334 787.902366 419.34396 793.071641 394.992574 799.188186 370.737177 806.252003 346.577768 814.26309 322.514348 823.221449 298.546917 833.127079 274.675474 843.97998 250.804032 854.83288 226.932589 865.685781 203.061146 876.538682 179.189703 887.391582 152.33433 899.601095 122.495027 913.167221 80.7200019 932.159798 0.153882647 968.788337"></polyline>
                    <polyline id="Path" stroke="#CCCAC2" stroke-width="2.39937492" points="3375.41983 646.948521 3271.84744 601.473088 3218.14324 577.893233 3179.7831 561.05048 3145.25897 545.892003 3114.57085 532.4178 3083.88274 518.943598 3053.19462 505.469396 3022.50651 491.995193 2991.81839 478.520991 2961.45402 467.144631 2931.41337 457.866113 2901.69646 450.685437 2872.30329 445.602604 2843.23386 442.617613 2814.48816 441.730464 2786.06619 442.941157 2757.96796 446.249693 2729.86973 449.558229 2701.7715 452.866764 2673.67327 456.1753 2645.57504 459.483835 2617.47681 462.792371 2589.37858 466.100907 2561.28035 469.409442 2533.18213 472.717978 2506.03645 474.294526 2479.84332 474.139087 2454.60275 472.251661 2430.31473 468.632247 2406.97926 463.280846 2384.59635 456.197458 2363.16599 447.382082 2342.68818 436.834719 2322.21036 426.287356 2301.73255 415.739993 2281.25474 405.19263 2260.77693 394.645267 2240.29912 384.097904 2219.82131 373.550541 2199.3435 363.003178 2178.86569 352.455815 2158.14152 342.453604 2137.17098 332.996547 2115.95408 324.084642 2094.49082 315.71789 2072.7812 307.896291 2050.82521 300.619844 2028.62286 293.88855 2006.17415 287.702409 1983.72544 281.516268 1961.27672 275.330127 1938.82801 269.143986 1916.3793 262.957845 1893.93059 256.771704 1871.48188 250.585562 1849.03316 244.399421 1826.58445 238.21328 1805.09149 231.470804 1784.55428 224.171992 1764.97281 216.316845 1746.3471 207.905362 1728.67713 198.937545 1711.96291 189.413391 1696.20445 179.332903 1681.40173 168.696079 1666.59901 158.059255 1651.7963 147.422431 1636.99358 136.785607 1622.19086 126.148784 1605.5378 114.182357 1587.03441 100.886327 1561.12965 82.2718852 1511.17048 46.3726047 1455.6994 35.1335844 1426.93662 29.3059443 1406.39177 25.1433442 1387.90141 21.3970041 1371.46553 18.066924 1355.02966 14.7368439 1338.59378 11.4067638 1322.15791 8.07668375 1305.72203 4.74660366 1289.82553 3.20656493 1274.46841 3.45656753 1259.65067 5.49661148 1245.37231 9.32669677 1231.63332 14.9468234 1218.43372 22.3569914 1205.77349 31.5572007 1193.65264 42.5474514 1181.53179 53.537702 1169.41094 64.5279527 1157.29009 75.5182033 1145.16924 86.508454 1133.04839 97.4987047 1120.92754 108.488955 1108.80669 119.479206 1096.68584 130.469457 1085.66378 142.080251 1075.74052 154.311588 1066.91604 167.16347 1059.19036 180.635894 1052.56348 194.728862 1047.03538 209.442374 1042.60608 224.776429 1039.27557 240.731028 1035.94506 256.685626 1032.61455 272.640225 1029.28404 288.594823 1025.95353 304.549422 1022.62303 320.50402 1019.29252 336.458619 1015.96201 352.413218 1012.6315 368.367816 1007.96224 384.816662 1001.95423 401.759757 994.60747 419.197098 985.921962 437.128688 975.897704 455.554526 964.534696 474.474611 951.832938 493.888944 937.79243 513.797525 923.751923 533.706106 909.711415 553.614686 895.670907 573.523267 881.6304 593.431848 867.589892 613.340429 853.549385 633.24901 839.508877 653.157591 825.46837 673.066171 810.103006 690.895521 793.412788 706.64564 775.397714 720.316528 756.057784 731.908184 735.392999 741.42061 713.403358 748.853805 690.088862 754.207768 665.449511 757.482501 640.810159 760.757234 616.170807 764.031966 591.531456 767.306699 566.892104 770.581432 542.252752 773.856164 517.613401 777.130897 492.974049 780.40563 468.334697 783.680362 443.791334 787.902366 419.34396 793.071641 394.992574 799.188186 370.737177 806.252003 346.577768 814.26309 322.514348 823.221449 298.546917 833.127079 274.675474 843.97998 250.804032 854.83288 226.932589 865.685781 203.061146 876.538682 179.189703 887.391582 152.33433 899.601095 122.495027 913.167221 80.7200019 932.159798 0.153882647 968.788337"></polyline>
                    <polyline id="Path" stroke="#6C6974" stroke-width="2.29937492" stroke-linecap="round" points="3375.41983 646.948521 3271.84744 601.473088 3218.14324 577.893233 3179.7831 561.05048 3145.25897 545.892003 3114.57085 532.4178 3083.88274 518.943598 3053.19462 505.469396 3022.50651 491.995193 2991.81839 478.520991 2961.45402 467.144631 2931.41337 457.866113 2901.69646 450.685437 2872.30329 445.602604 2843.23386 442.617613 2814.48816 441.730464 2786.06619 442.941157 2757.96796 446.249693 2729.86973 449.558229 2701.7715 452.866764 2673.67327 456.1753 2645.57504 459.483835 2617.47681 462.792371 2589.37858 466.100907 2561.28035 469.409442 2533.18213 472.717978 2506.03645 474.294526 2479.84332 474.139087 2454.60275 472.251661 2430.31473 468.632247 2406.97926 463.280846 2384.59635 456.197458 2363.16599 447.382082 2342.68818 436.834719 2322.21036 426.287356 2301.73255 415.739993 2281.25474 405.19263 2260.77693 394.645267 2240.29912 384.097904 2219.82131 373.550541 2199.3435 363.003178 2178.86569 352.455815 2158.14152 342.453604 2137.17098 332.996547 2115.95408 324.084642 2094.49082 315.71789 2072.7812 307.896291 2050.82521 300.619844 2028.62286 293.88855 2006.17415 287.702409 1983.72544 281.516268 1961.27672 275.330127 1938.82801 269.143986 1916.3793 262.957845 1893.93059 256.771704 1871.48188 250.585562 1849.03316 244.399421 1826.58445 238.21328 1805.09149 231.470804 1784.55428 224.171992 1764.97281 216.316845 1746.3471 207.905362 1728.67713 198.937545 1711.96291 189.413391 1696.20445 179.332903 1681.40173 168.696079 1666.59901 158.059255 1651.7963 147.422431 1636.99358 136.785607 1622.19086 126.148784 1605.5378 114.182357 1587.03441 100.886327 1561.12965 82.2718852 1511.17048 46.3726047 1455.6994 35.1335844 1426.93662 29.3059443 1406.39177 25.1433442 1387.90141 21.3970041 1371.46553 18.066924 1355.02966 14.7368439 1338.59378 11.4067638 1322.15791 8.07668375 1305.72203 4.74660366 1289.82553 3.20656493 1274.46841 3.45656753 1259.65067 5.49661148 1245.37231 9.32669677 1231.63332 14.9468234 1218.43372 22.3569914 1205.77349 31.5572007 1193.65264 42.5474514 1181.53179 53.537702 1169.41094 64.5279527 1157.29009 75.5182033 1145.16924 86.508454 1133.04839 97.4987047 1120.92754 108.488955 1108.80669 119.479206 1096.68584 130.469457 1085.66378 142.080251 1075.74052 154.311588 1066.91604 167.16347 1059.19036 180.635894 1052.56348 194.728862 1047.03538 209.442374 1042.60608 224.776429 1039.27557 240.731028 1035.94506 256.685626 1032.61455 272.640225 1029.28404 288.594823 1025.95353 304.549422 1022.62303 320.50402 1019.29252 336.458619 1015.96201 352.413218 1012.6315 368.367816 1007.96224 384.816662 1001.95423 401.759757 994.60747 419.197098 985.921962 437.128688 975.897704 455.554526 964.534696 474.474611 951.832938 493.888944 937.79243 513.797525 923.751923 533.706106 909.711415 553.614686 895.670907 573.523267 881.6304 593.431848 867.589892 613.340429 853.549385 633.24901 839.508877 653.157591 825.46837 673.066171 810.103006 690.895521 793.412788 706.64564 775.397714 720.316528 756.057784 731.908184 735.392999 741.42061 713.403358 748.853805 690.088862 754.207768 665.449511 757.482501 640.810159 760.757234 616.170807 764.031966 591.531456 767.306699 566.892104 770.581432 542.252752 773.856164 517.613401 777.130897 492.974049 780.40563 468.334697 783.680362 443.791334 787.902366 419.34396 793.071641 394.992574 799.188186 370.737177 806.252003 346.577768 814.26309 322.514348 823.221449 298.546917 833.127079 274.675474 843.97998 250.804032 854.83288 226.932589 865.685781 203.061146 876.538682 179.189703 887.391582 152.33433 899.601095 122.495027 913.167221 80.7200019 932.159798 0.153882647 968.788337"></polyline>
                    <g transform="translate(1490.630921, 0.000000)" id="Path">
                        <path d="M0.495828326,92.2874256 L40.5832893,0.457783761" stroke="#130F26" stroke-width="1.1"></path>
                        <path d="M0.495828326,92.2874256 L40.5832893,0.457783761" stroke="#CCCAC2" stroke-width="0.9" stroke-linecap="round"></path>
                    </g>
                </g>
                <g id="Group" transform="translate(3149.816790, 3702.996260)" fill="#9A979B" fill-rule="nonzero" stroke="#130F26" stroke-width="0.1">
                    <polygon id="Path" points="0.798717268 15.4128447 14.4335175 0.133944234 38.5416726 21.641015 24.9068724 36.9199154"></polygon>
                </g>
                <g id="Group" transform="translate(3100.197868, 3815.242499)" fill="#9A979B" fill-rule="nonzero" stroke="#130F26" stroke-width="0.1">
                    <polygon id="Path" points="273.865001 98.0197314 314.84211 55.9915821 369.754371 109.513416 328.777262 151.541565"></polygon>
                    <polygon id="Path" points="309.731468 132.978028 328.777262 151.541565 284.332959 197.12584 265.287165 178.562303"></polygon>
                    <polygon id="Path" points="237.140196 26.313303 266.695241 9.06383542 301.864115 69.3024549 272.30907 86.5519225"></polygon>
                    <polygon id="Path" points="168.444648 66.4066816 220.481044 36.0362284 244.547974 77.2590053 192.511578 107.629458"></polygon>
                    <polygon id="Path" points="266.695241 9.06383542 282.057306 0.0979401262 434.973226 42.6217323 369.754371 109.513416"></polygon>
                    <polygon id="Path" points="118.037877 242.413843 98.1899911 107.410016 157.044378 73.0603199 221.707019 136.085645"></polygon>
                    <polygon id="Path" points="247.553244 161.277421 284.332959 197.12584 236.276462 246.41496 199.496747 210.56654"></polygon>
                    <polygon id="Path" points="202.891375 280.656355 173.862601 310.429702 120.372542 258.294059 149.401316 228.520713"></polygon>
                    <polygon id="Path" points="173.862601 310.429702 134.041872 351.271811 120.372542 258.294059"></polygon>
                    <polygon id="Path" points="2.94504348 374.862621 1.34920927 323.355273 0.157848459 284.90276 66.5948901 282.845025 111.619769 281.450483 112.81113 319.902995 114.406964 371.410343 69.3820851 372.804886"></polygon>
                </g>
                <g id="Group" transform="translate(2853.794738, 3536.974034)" fill="#9A979B" fill-rule="nonzero" stroke="#130F26" stroke-width="0.1">
                    <polygon id="Path" points="162.420856 233.168023 140.046402 258.240415 0.589332979 97.4424111 118.526301 66.4088578"></polygon>
                    <polygon id="Path" points="133.632715 123.799414 118.526301 66.4088578 219.613077 39.8092097 234.71949 97.1997664"></polygon>
                    <polygon id="Path" points="244.985716 136.202036 245.889306 139.63485 162.420856 233.168023 143.898941 162.801684"></polygon>
                    <polygon id="Path" points="275.082783 25.2130901 299.365662 18.8233716 311.741883 65.8416914 287.459004 72.2314099"></polygon>
                    <polygon id="Path" points="219.613077 39.8092097 275.082783 25.2130901 291.691245 88.3100583 236.221539 102.906178"></polygon>
                    <polygon id="Path" points="289.695493 90.5464611 245.889306 139.63485 236.642798 104.506576"></polygon>
                    <polygon id="Path" points="299.365662 18.8233716 370.375374 0.138105167 311.741883 65.8416914"></polygon>
                </g>
                <g id="Group" transform="translate(3298.156249, 3527.622541)" fill="#9A979B" fill-rule="nonzero" stroke="#130F26" stroke-width="0.1">
                    <polygon id="Path" points="33.3118368 86.5061025 0.168035361 0.83052747 45.0195489 7.47251496"></polygon>
                    <polygon id="Path" points="45.0195489 7.47251496 63.7695704 10.2491751 90.5295388 14.2120151 83.1003511 64.3631758 78.8218266 93.2456027 52.0618582 89.2827626 33.3118368 86.5061025 37.5903613 57.6236756"></polygon>
                    <polygon id="Path" points="90.5295388 14.2120151 116.855322 18.1105574 150.538871 23.0986992 143.422718 71.1367023 137.699223 109.773481 104.015674 104.785339 77.6898914 100.886797 83.4133856 62.2500182"></polygon>
                    <polygon id="Path" points="150.538871 23.0986992 165.099009 25.2548864 203.85167 30.9937047 197.976224 70.6562428 191.012023 117.668486 152.259362 111.929668 137.699223 109.773481 144.663425 62.7612373"></polygon>
                    <polygon id="Path" points="139.921621 110.102592 191.012023 117.668486 168.508075 269.582685 118.362612 255.637928"></polygon>
                    <polygon id="Path" points="59.2244758 153.489374 42.6188062 110.564295 70.4248201 99.8109241 87.0304897 142.736003"></polygon>
                    <polygon id="Path" points="131.900178 164.2518 118.362612 255.637928 96.3755595 249.523635 59.2244758 153.489374"></polygon>
                    <polygon id="Path" points="248.954707 112.767423 217.997328 108.182995 192.966276 104.476187 197.63804 72.9391735 222.669093 76.6459812 228.882723 34.7005125 259.840101 39.2849401 253.626471 81.2304089"></polygon>
                    <polygon id="Path" points="259.840101 39.2849401 286.134268 43.1788005 306.75981 46.2332034 301.707386 80.3398861 295.874416 119.715686 275.248874 116.661283 248.954707 112.767423 254.787677 73.3916229"></polygon>
                    <polygon id="Path" points="259.735596 294.95179 168.508075 269.582685 180.283673 227.251122 271.511194 252.620228"></polygon>
                    <polygon id="Path" points="329.776775 49.6417482 539.806973 80.7447775 422.320491 170.601972"></polygon>
                    <polygon id="Path" points="415.978853 175.452248 271.21642 286.17091 290.373265 156.851522"></polygon>
                    <polygon id="Path" points="290.373265 156.851522 306.75981 46.2332034 329.776775 49.6417482 422.320491 170.601972 415.978853 175.452248"></polygon>
                </g>
                <g id="Group" transform="translate(2694.591486, 3644.204204)" fill="#9A979B" fill-rule="nonzero" stroke="#130F26" stroke-width="0.1">
                    <polygon id="Path" points="383.54646 386.172069 384.594236 419.990214 294.443192 422.782436 293.395417 388.964291"></polygon>
                    <polygon id="Path" points="382.258453 344.60019 383.54646 386.172069 352.351861 387.13825 351.063854 345.566371"></polygon>
                    <polygon id="Path" points="350.971679 342.591302 349.887122 307.586022 360.002031 306.478524 380.550743 341.675159"></polygon>
                    <polygon id="Path" points="291.073618 314.025612 323.030388 310.526611 344.035247 308.226754 347.530008 340.13456 352.223144 382.983744 331.218285 385.283601 299.261515 388.782602 294.568379 345.933419"></polygon>
                    <polygon id="Path" points="294.443192 422.782436 251.159487 424.12305 209.340867 425.418286 211.287509 373.783988 213.219058 322.55004 251.476183 318.361203 291.073618 314.025612 292.751848 368.192391"></polygon>
                    <polygon id="Path" points="384.594236 419.990214 386.444559 479.711499 387.9195 527.316878 351.750836 528.437119 321.008423 529.389295 319.533482 481.783917 350.275895 480.831741 348.425572 421.110455"></polygon>
                    <polygon id="Path" points="206.327189 505.35548 208.61014 444.800671 209.340867 425.418286 247.416022 426.85328 271.04544 427.743836 270.314713 447.126222 268.031763 507.681031 244.402344 506.790475"></polygon>
                    <polygon id="Path" points="316.355173 529.533419 351.475556 528.445645 387.9195 527.316878 389.622149 582.271784 390.588583 613.464517 353.879226 606.026818 318.503071 598.859239 317.72535 573.757428"></polygon>
                    <polygon id="Path" points="274.255621 589.894244 244.060031 583.776302 219.405429 532.536215 272.427636 530.893974"></polygon>
                    <polygon id="Path" points="304.529058 596.027959 274.255621 589.894244 286.300616 530.46429 316.574053 536.598004"></polygon>
                    <polygon id="Path" points="75.6049302 401.450126 68.9563803 381.615699 54.9656233 339.877476 140.585377 330.502825 201.132709 323.873395 199.49464 367.322844 198.716213 387.970464 147.719372 393.554194"></polygon>
                    <polygon id="Path" points="196.664923 442.38051 195.335147 477.652542 146.983309 475.830235 148.313085 440.558203"></polygon>
                    <polygon id="Path" points="195.335147 477.652542 194.195477 507.882078 151.011718 512.610341 147.753513 482.862336"></polygon>
                    <polygon id="Path" points="198.411867 396.043181 196.934329 435.234581 142.311518 433.175931 143.789056 393.984531"></polygon>
                    <polygon id="Path" points="151.011718 512.610341 114.216565 516.639104 75.6049302 401.450126 138.087384 394.608817"></polygon>
                    <polygon id="Path" points="161.224667 511.492108 194.195477 507.882078 229.270862 580.779862 171.050611 568.983831"></polygon>
                    <polygon id="Path" points="199.913928 67.067443 228.639743 100.189133 194.312274 129.951144 165.586459 96.829454"></polygon>
                    <polygon id="Path" points="152.714356 107.989602 131.258989 126.591465 84.5413994 72.7247425 102.502561 50.0939608"></polygon>
                    <polygon id="Path" points="159.308435 49.5408082 173.809528 36.9683204 199.913928 67.067443 185.412835 79.6399308"></polygon>
                    <polygon id="Path" points="102.502561 50.0939608 123.266574 23.9316298 152.595315 47.2012281 131.831301 73.3635591"></polygon>
                    <polygon id="Path" points="127.637575 18.4242376 142.015245 0.308599358 173.809528 36.9683204 156.634793 51.8588628"></polygon>
                    <polygon id="Path" points="65.1681859 97.1346873 84.5413994 72.7247425 133.007124 128.607115 109.865002 148.671399"></polygon>
                    <polygon id="Path" points="47.2012817 119.772705 65.1681859 97.1346873 100.546896 137.927356 79.0846692 156.535166"></polygon>
                    <polygon id="Path" points="79.0846692 156.535166 55.7857121 176.735426 32.9861838 137.683505 47.2012817 119.772705"></polygon>
                    <polygon id="Path" points="70.6193754 202.143103 45.579309 216.757454 18.9125011 232.321235 7.54573258 198.411082 0.788419115 178.252183 17.3937858 157.329682 27.9023686 179.486505 47.0171992 161.716375"></polygon>
                    <polygon id="Path" points="248.753762 239.904101 270.912608 226.971342 302.739026 208.396213 324.350969 245.413993 353.363346 295.107524 313.256104 299.498934 285.331812 302.556412 264.369236 266.650894"></polygon>
                    <polygon id="Path" points="226.417762 309.007011 187.792626 313.236142 183.906126 277.75169 222.531262 273.522558"></polygon>
                    <polygon id="Path" points="214.556444 259.862979 248.753762 239.904101 285.331812 302.556412 242.236792 307.274959"></polygon>
                    <polygon id="Path" points="212.0523 119.597378 234.2408 106.647312 262.067247 138.732004 302.739026 208.396213 273.767298 225.305234"></polygon>
                    <polygon id="Path" points="36.1259973 283.673762 18.9125011 232.321235 59.6758509 218.661643 76.8893471 270.01417"></polygon>
                    <polygon id="Path" points="49.5417207 323.696504 38.9664041 292.147466 95.3572843 273.251168 105.932601 304.800205"></polygon>
                    <polygon id="Path" points="111.782962 301.385708 122.852775 320.346517 69.2373762 326.216957"></polygon>
                    <polygon id="Path" points="175.078988 314.62818 122.852775 320.346517 119.729224 291.827924 171.955437 286.109588"></polygon>
                </g>
                <g id="Group" transform="translate(3274.771799, 3236.324386)" fill="#9A979B" fill-rule="nonzero" stroke="#130F26" stroke-width="0.1">
                    <polygon id="Path" points="512.216876 256.33587 533.210584 259.444794 583.78967 354.831328 499.475773 342.345421"></polygon>
                    <polygon id="Path" points="499.475773 342.345421 444.613494 334.220956 457.354597 248.211405 512.216876 256.33587"></polygon>
                    <polygon id="Path" points="444.613494 334.220956 409.961474 329.089394 422.702577 243.079844 457.354597 248.211405"></polygon>
                    <polygon id="Path" points="366.956244 235.619984 422.587261 243.85829 409.961474 329.089394 354.330458 320.851088"></polygon>
                    <polygon id="Path" points="354.330458 320.851088 316.044891 315.181441 267.407247 307.978771 273.075249 269.716593 321.712893 276.919262 328.670677 229.950336 366.956244 235.619984 359.99846 282.588909"></polygon>
                    <polygon id="Path" points="133.50202 288.148965 96.1867875 282.623013 62.6434526 277.655635 69.7541245 229.654634 76.4824735 184.234525 110.025808 189.201903 147.34104 194.727855 140.612692 240.147963"></polygon>
                    <polygon id="Path" points="62.6434526 277.655635 16.2000987 270.777915 9.70271753 174.34522 76.4824735 184.234525"></polygon>
                    <polygon id="Path" points="9.70271753 174.34522 6.69585657 129.718055 4.58372239 98.3702262 48.7114137 95.3979726 101.468103 91.8445065 146.659045 88.8006368 148.771179 120.148465 151.77804 164.775631 106.587098 167.8195 53.8304088 171.372966"></polygon>
                    <polygon id="Path" points="229.429899 203.604521 281.721686 211.348326 267.407247 307.978771 215.11546 300.234966"></polygon>
                    <polygon id="Path" points="215.11546 300.234966 133.50202 288.148965 140.659239 239.833742 222.27268 251.919743"></polygon>
                    <polygon id="Path" points="91.6803468 11.8686009 128.943746 0.553158406 150.823619 72.5836433 113.56022 83.8990858"></polygon>
                    <polygon id="Path" points="81.7087772 79.1822576 2.50056348 67.4524424 0.618583399 39.5205103 91.6803468 11.8686009"></polygon>
                </g>
                <g id="Group" transform="translate(2792.486196, 3067.626413)" fill="#9A979B" fill-rule="nonzero" stroke="#130F26" stroke-width="0.1">
                    <polygon id="Path" points="292.782253 350.399974 322.415779 477.51237 271.890645 490.807391 206.927792 370.408675"></polygon>
                    <polygon id="Path" points="318.51787 407.815838 301.7345 335.823917 332.287309 328.703472 349.07068 400.695393"></polygon>
                    <polygon id="Path" points="366.84549 279.477423 407.627806 270.986882 421.281828 336.549714 380.499512 345.040256"></polygon>
                    <polygon id="Path" points="407.627806 270.986882 446.405479 262.91369 450.950703 330.372899 421.281828 336.549714"></polygon>
                    <polygon id="Path" points="427.239835 335.309306 450.950703 330.372899 454.264432 379.554525 437.194399 383.108365"></polygon>
                    <polygon id="Path" points="375.3342 463.587588 334.052283 474.450378 318.51787 407.815838 360.304102 399.11629"></polygon>
                    <polygon id="Path" points="417.950295 452.373726 377.088381 463.125998 360.803284 401.257523 401.665198 390.505251"></polygon>
                    <polygon id="Path" points="403.440808 390.135584 454.264432 379.554525 458.452712 441.716051 417.950295 452.373726"></polygon>
                    <polygon id="Path" points="444.902321 250.942706 393.581288 261.627322 381.338207 202.839436 432.65924 192.15482"></polygon>
                    <polygon id="Path" points="381.338207 202.839436 362.666186 113.181565 385.708538 110.293162 432.65924 192.15482"></polygon>
                    <polygon id="Path" points="296.364704 121.492581 328.698968 117.43942 362.666186 113.181565 367.543442 152.077598 371.181381 181.090095 337.214163 185.34795 304.8799 189.401111 301.241961 160.388614"></polygon>
                    <polygon id="Path" points="236.65891 116.856684 232.435732 102.966339 322.490389 0.0681312324 379.223433 98.985952"></polygon>
                    <polygon id="Path" points="82.7284286 379.905685 109.890173 411.230187 31.4501674 479.224363 19.1838356 434.988066"></polygon>
                    <polygon id="Path" points="19.1838356 434.988066 0.578422535 367.891023 36.6106121 326.719941 82.7284286 379.905685"></polygon>
                    <polygon id="Path" points="109.174784 427.766626 135.716624 404.759354 166.931683 440.758372 140.389842 463.765645"></polygon>
                    <polygon id="Path" points="143.750409 397.795426 187.551768 359.827079 220.3593 420.630824 170.563855 447.490048"></polygon>
                    <polygon id="Path" points="220.3593 420.630824 259.923201 493.956466 159.190422 520.462964 131.256658 468.692004"></polygon>
                    <polygon id="Path" points="72.4442031 459.605808 109.174784 427.766626 159.190422 520.462964 111.983023 532.884967"></polygon>
                    <polygon id="Path" points="47.215065 536.077603 35.0083586 492.056334 72.4442031 459.605808 98.716788 508.298028"></polygon>
                    <polygon id="Path" points="98.716788 508.298028 111.983023 532.884967 50.7944308 548.985936 47.215065 536.077603"></polygon>
                </g>
                <g id="Group" transform="translate(2262.750633, 3808.228879)" fill="#9A979B" fill-rule="nonzero" stroke="#130F26" stroke-width="0.1">
                    <polygon id="Path" points="252.707613 445.704239 296.833473 472.444479 363.359048 512.758931 399.521139 534.673132 360.725068 569.850412 326.656808 550.580109 296.529934 581.625459 237.018098 550.167321 263.983146 515.129504 222.412229 491.615413"></polygon>
                    <polygon id="Path" points="55.1186604 78.0041247 31.002562 77.0087623 0.06272407 75.7317584 0.682052383 39.8107517 1.3522684 0.938260995 33.3010673 2.25690849 32.1064631 41.1077557 56.6002624 42.1187072"></polygon>
                    <polygon id="Path" points="58.2036017 3.28473005 95.3315808 4.81714185 121.060096 5.87905476 119.255863 49.578811 117.975155 80.5984494 92.2466394 79.5365365 55.1186604 78.0041247 56.3993689 46.9844863"></polygon>
                    <polygon id="Path" points="119.82605 35.7684944 121.060096 5.87905476 143.762122 6.81605304 163.233548 37.5600857"></polygon>
                    <polygon id="Path" points="163.233548 37.5600857 175.376375 56.7327694 194.754067 87.3288033 158.506735 85.8327392 117.828365 84.1537893 119.056471 54.4082344 119.82605 35.7684944 142.779968 36.7158892"></polygon>
                    <polygon id="Path" points="271.403795 208.353415 302.076021 256.782737 277.278605 272.482893 246.606379 224.053571"></polygon>
                    <polygon id="Path" points="420.888764 444.37983 439.393043 473.596806 449.420009 489.42869 434.080046 503.337784 408.817262 526.244125 393.299207 516.840195 364.661389 499.485697 399.645722 465.19916"></polygon>
                    <polygon id="Path" points="490.841958 407.893652 508.534212 435.828496 458.463384 481.228856 434.578426 443.516162"></polygon>
                    <polygon id="Path" points="434.578426 443.516162 417.965349 417.285265 474.228882 381.662755 490.841958 407.893652"></polygon>
                    <polygon id="Path" points="474.228882 381.662755 499.868027 365.429669 524.073569 350.104251 529.480732 366.235285 507.541009 381.450725 525.999694 419.992147 508.534212 435.828496 484.301878 397.567317"></polygon>
                    <polygon id="Path" points="445.399779 329.784376 467.636606 319.007481 492.426181 370.141376 470.189353 380.91827"></polygon>
                    <polygon id="Path" points="467.636606 319.007481 507.219491 299.823964 524.073569 350.104251 492.426181 370.141376"></polygon>
                    <polygon id="Path" points="454.192498 355.660344 471.682101 383.275215 417.965349 417.285265 400.475747 389.670394"></polygon>
                    <polygon id="Path" points="400.475747 389.670394 382.005856 360.507716 439.588074 332.60097 454.192498 355.660344"></polygon>
                    <polygon id="Path" points="434.078821 321.906694 409.784819 333.680581 381.538016 275.415399 405.832018 263.641511"></polygon>
                    <polygon id="Path" points="388.183123 299.572999 398.739323 316.240507 409.784819 333.680581 389.506525 343.508288 379.157082 327.167234 365.659884 334.698558 356.227411 319.805335 369.266101 311.550061"></polygon>
                    <polygon id="Path" points="356.227411 319.805335 343.404628 299.559048 375.36034 279.326712 388.183123 299.572999"></polygon>
                    <polygon id="Path" points="343.404628 299.559048 311.173194 248.667847 341.571467 229.421583 373.8029 280.312784"></polygon>
                    <polygon id="Path" points="394.681531 246.035665 371.969739 210.175319 458.751443 155.230633 472.643686 196.67496"></polygon>
                    <polygon id="Path" points="474.320184 201.676408 490.098318 248.746863 469.755868 255.563515 453.977733 208.49306"></polygon>
                    <polygon id="Path" points="481.847034 298.756224 440.701043 318.697288 426.35487 289.105183 467.500861 269.164119"></polygon>
                    <polygon id="Path" points="464.73875 264.802937 490.098318 248.746863 503.365792 288.327336 485.210372 297.126211"></polygon>
                    <polygon id="Path" points="286.045128 208.99237 258.426176 165.383958 281.924979 150.506003 309.543931 194.114415"></polygon>
                    <polygon id="Path" points="311.173194 248.667847 296.885384 226.108385 286.045128 208.99237 303.838847 197.726513 320.538121 187.153589 331.378378 204.269603 345.666187 226.829065 328.966913 237.401989"></polygon>
                    <polygon id="Path" points="351.476496 137.256112 337.571135 115.30051 322.002285 90.7183732 368.329351 61.3870047 416.971539 30.5898478 426.494621 58.999783 435.000187 84.3741933 392.220288 111.459719"></polygon>
                    <polygon id="Path" points="441.519364 103.822667 452.600567 136.880902 458.751443 155.230633 413.416687 170.422081 379.648434 181.737651 373.497558 163.387921 362.416355 130.329685 396.184607 119.014114"></polygon>
                    <polygon id="Path" points="342.816325 77.540239 304.27992 101.939054 246.726235 11.0657705 302.164562 13.3539195"></polygon>
                    <polygon id="Path" points="302.164562 13.3539195 412.723605 17.9171084 416.971539 30.5898478 342.816325 77.540239"></polygon>
                    <polygon id="Path" points="242.86914 140.820475 224.642916 112.04253 211.937306 91.9812513 234.930684 77.4232988 273.348086 53.0998295 286.053696 73.1611078 304.27992 101.939054 265.862518 126.262523"></polygon>
                    <polygon id="Path" points="213.164065 27.8602893 240.120578 10.7931301 246.726235 11.0657705 273.348086 53.0998295 241.799835 73.074187"></polygon>
                    <polygon id="Path" points="211.937306 91.9812513 183.301536 46.7673536 213.164065 27.8602893 241.799835 73.074187"></polygon>
                    <polygon id="Path" points="183.301536 46.7673536 158.38092 7.41942599 240.120578 10.7931301"></polygon>
                </g>
                <g id="Group" transform="translate(2266.426481, 3401.346612)" fill="#9A979B" fill-rule="nonzero" stroke="#130F26" stroke-width="0.1">
                    <polygon id="Path" points="280.137963 303.91964 302.106052 308.296096 293.119497 353.390587 271.151409 349.01413"></polygon>
                    <polygon id="Path" points="282.329843 407.533021 265.00125 406.817804 242.547808 405.891066 243.905662 373.002913 266.359104 373.929651 267.306416 350.985101 284.635009 351.700317 283.687697 374.644867"></polygon>
                    <polygon id="Path" points="355.802783 318.993495 421.921588 332.165605 415.096592 366.413403 348.977787 353.241293"></polygon>
                    <polygon id="Path" points="377.549768 411.463106 345.867541 410.155461 348.018645 358.054265 379.700871 359.36191"></polygon>
                    <polygon id="Path" points="405.885893 412.632645 385.018752 411.771379 386.986581 364.109222 407.853722 364.970487"></polygon>
                    <polygon id="Path" points="302.106052 308.296096 331.963252 314.244212 355.802783 318.993495 352.356862 336.285107 346.582058 365.26305 322.742527 360.513767 328.517331 331.535824 298.660131 325.587708"></polygon>
                    <polygon id="Path" points="337.702929 409.818477 310.505285 408.695927 312.402275 362.749528 339.599919 363.872077"></polygon>
                    <polygon id="Path" points="303.305172 408.398752 282.329843 407.533021 292.885327 354.565651 313.225652 358.617827"></polygon>
                    <polygon id="Path" points="421.921588 332.165605 466.849904 341.116171 409.95674 412.800664 405.885893 412.632645"></polygon>
                    <polygon id="Path" points="177.345932 343.265416 217.358526 344.916887 230.14567 405.379183 174.875624 403.09798"></polygon>
                    <polygon id="Path" points="101.136569 340.119968 152.198598 342.227491 150.758791 377.100595 99.6967625 374.993073"></polygon>
                    <polygon id="Path" points="149.728289 402.060054 98.6662607 399.952532 99.6967625 374.993073 150.758791 377.100595"></polygon>
                    <polygon id="Path" points="152.198598 342.227491 177.345932 343.265416 174.875624 403.09798 149.728289 402.060054"></polygon>
                    <polygon id="Path" points="64.1815185 338.594694 101.136569 340.119968 98.6662607 399.952532 61.7112101 398.427257"></polygon>
                    <polygon id="Path" points="61.7112101 398.427257 0.821998299 395.91413 24.8632416 336.97188 64.1815185 338.594694"></polygon>
                    <polygon id="Path" points="419.644511 165.124855 466.002376 187.752654 497.842615 203.294234 473.585544 252.974063 461.586014 277.549768 429.745775 262.008188 383.38791 239.38039 395.38744 214.804685"></polygon>
                    <polygon id="Path" points="497.842615 203.294234 554.345021 230.873697 501.743327 297.151007 461.586014 277.549768"></polygon>
                    <polygon id="Path" points="433.218804 300.96532 423.790263 320.275496 350.972555 305.768839 368.695696 269.470862"></polygon>
                    <polygon id="Path" points="447.911018 270.874848 468.932038 281.135446 501.743327 297.151007 491.873033 309.587421 459.599802 297.210953 443.886137 324.278973 423.790263 320.275496 438.923497 289.281792"></polygon>
                    <polygon id="Path" points="541.338608 162.206596 557.032235 218.802811 522.043357 201.724344"></polygon>
                    <polygon id="Path" points="436.896466 94.9405317 453.891033 64.4361364 511.711774 100.383476 496.309401 128.029963"></polygon>
                    <polygon id="Path" points="496.309401 128.029963 484.377263 149.447552 469.53248 176.093191 433.413355 158.463038 408.328395 146.218785 424.166169 117.790776 436.896466 94.9405317 461.24731 108.502487"></polygon>
                    <polygon id="Path" points="522.043357 201.724344 491.813296 186.96871 471.671599 177.13732 480.593661 158.864442 490.966851 137.619572 511.108548 147.450962 541.338608 162.206596 530.965418 183.451466"></polygon>
                    <polygon id="Path" points="456.424247 0.424534625 489.927136 25.1793886 506.799007 37.645797 514.022236 63.6950615 522.051265 92.6502942 497.583902 77.4388567 493.55326 49.9286505 452.90751 22.5923494"></polygon>
                </g>
                <g id="Group" transform="translate(2802.837892, 4332.861746)" fill="#9A979B" fill-rule="nonzero" stroke="#130F26" stroke-width="0.1">
                    <polygon id="Path" points="179.072847 65.9142536 159.867656 60.2393943 170.343509 24.7977733 190.046134 28.7897307"></polygon>
                    <polygon id="Path" points="81.1365031 6.72350233 104.801492 11.5182761 135.644689 17.76743 128.042526 55.2764723 123.389732 78.2333413 92.5465341 71.9841874 68.8815454 67.1894136 73.5343399 44.2325446"></polygon>
                    <polygon id="Path" points="38.3308843 12.1334282 39.1322468 9.42228063 49.2367665 0.260282603 81.1365031 6.72350233 76.2275465 23.3313498"></polygon>
                    <polygon id="Path" points="26.3649178 52.6163575 0.0652782728 44.8451902 39.1322468 9.42228063"></polygon>
                </g>
                <g id="Group" transform="translate(1619.092816, 2972.254547)" fill-rule="nonzero" stroke-width="0.1">
                    <path d="M600.915946,785.628583 L484.692186,738.238688" id="Path" stroke="#9A979B" fill="#000000"></path>
                    <path d="M622.112219,768.238633 L363.86895,662.940702" id="Path" stroke="#9A979B" fill="#000000"></path>
                    <path d="M643.308493,750.848683 L362.628561,636.402269" id="Path" stroke="#9A979B" fill="#000000"></path>
                    <path d="M654.659153,729.444213 L361.388173,609.863837" id="Path" stroke="#9A979B" fill="#000000"></path>
                    <path d="M663.7632,707.123694 L369.288797,587.052625" id="Path" stroke="#9A979B" fill="#000000"></path>
                    <path d="M672.867248,684.803175 L378.392844,564.732106" id="Path" stroke="#9A979B" fill="#000000"></path>
                    <path d="M681.971295,662.482656 L387.496891,542.411587" id="Path" stroke="#9A979B" fill="#000000"></path>
                    <path d="M691.075342,640.162136 L396.600939,520.091068" id="Path" stroke="#9A979B" fill="#000000"></path>
                    <path d="M700.17939,617.841617 L405.704986,497.770548" id="Path" stroke="#9A979B" fill="#000000"></path>
                    <path d="M709.283437,595.521098 L414.809034,475.450029" id="Path" stroke="#9A979B" fill="#000000"></path>
                    <path d="M718.387485,573.200579 L423.913081,453.12951" id="Path" stroke="#9A979B" fill="#000000"></path>
                    <path d="M727.491532,550.88006 L433.017129,430.808991" id="Path" stroke="#9A979B" fill="#000000"></path>
                    <path d="M736.59558,528.55954 L442.121176,408.488471" id="Path" stroke="#9A979B" fill="#000000"></path>
                    <path d="M745.699627,506.239021 L451.225223,386.167952" id="Path" stroke="#9A979B" fill="#000000"></path>
                    <path d="M754.803674,483.918502 L460.329271,363.847433" id="Path" stroke="#9A979B" fill="#000000"></path>
                    <path d="M763.907722,461.597983 L469.433318,341.526914" id="Path" stroke="#9A979B" fill="#000000"></path>
                    <path d="M773.011769,439.277463 L478.537366,319.206394" id="Path" stroke="#9A979B" fill="#000000"></path>
                    <path d="M782.115817,416.956944 L487.641413,296.885875" id="Path" stroke="#9A979B" fill="#000000"></path>
                    <path d="M791.219864,394.636425 L496.745461,274.565356" id="Path" stroke="#9A979B" fill="#000000"></path>
                    <path d="M800.323912,372.315906 L505.849508,252.244837" id="Path" stroke="#9A979B" fill="#000000"></path>
                    <path d="M809.427959,349.995386 L514.953555,229.924317" id="Path" stroke="#9A979B" fill="#000000"></path>
                    <path d="M818.532006,327.674867 L524.057603,207.603798" id="Path" stroke="#9A979B" fill="#000000"></path>
                    <path d="M827.636054,305.354348 L533.16165,185.283279" id="Path" stroke="#9A979B" fill="#000000"></path>
                    <path d="M834.147111,281.976545 L542.265698,162.96276" id="Path" stroke="#9A979B" fill="#000000"></path>
                    <path d="M840.06262,258.355908 L551.369745,140.642241" id="Path" stroke="#9A979B" fill="#000000"></path>
                    <path d="M845.978128,234.735272 L560.473793,118.321721" id="Path" stroke="#9A979B" fill="#000000"></path>
                    <path d="M841.803727,207.000504 L573.674272,97.67151" id="Path" stroke="#9A979B" fill="#000000"></path>
                    <path d="M833.964252,177.771314 L589.288813,78.0056254" id="Path" stroke="#9A979B" fill="#000000"></path>
                    <path d="M826.124777,148.542123 L604.903354,58.3397408" id="Path" stroke="#9A979B" fill="#000000"></path>
                    <path d="M668.27946,58.1484934 L818.285302,119.312933" id="Path" stroke="#9A979B" fill="#000000"></path>
                    <path d="M761.629125,70.178876 L803.839092,87.3898654" id="Path" stroke="#9A979B" fill="#000000"></path>
                    <path d="M520.90201,93.26057 L314.657512,598.913064" id="Path" stroke="#9A979B" fill="#000000"></path>
                    <path d="M510.873286,48.0124127 L271.980939,633.708091" id="Path" stroke="#9A979B" fill="#000000"></path>
                    <path d="M246.215784,627.041159 L487.744384,34.8821426" id="Path" stroke="#9A979B" fill="#000000"></path>
                    <path d="M222.283025,615.881717 L460.682446,31.3945514" id="Path" stroke="#9A979B" fill="#000000"></path>
                    <path d="M198.350266,604.722274 L433.620508,27.9069602" id="Path" stroke="#9A979B" fill="#000000"></path>
                    <path d="M174.417506,593.562832 L406.55857,24.4193691" id="Path" stroke="#9A979B" fill="#000000"></path>
                    <path d="M150.484747,582.403389 L379.496632,20.9317779" id="Path" stroke="#9A979B" fill="#000000"></path>
                    <path d="M126.551988,571.243947 L352.434694,17.4441867" id="Path" stroke="#9A979B" fill="#000000"></path>
                    <polygon id="Path" stroke="#130F26" fill="#9A979B" points="400.842048 580.653642 415.850766 543.856559 425.516165 520.159768 449.491927 529.935814 439.826528 553.632606 458.841676 561.385976 485.870317 572.406825 470.861598 609.203908 443.832958 598.183059 424.81781 590.429689"></polygon>
                </g>
                <g id="Group" transform="translate(2416.278036, 4724.205065)" fill="#000000" fill-rule="nonzero" stroke="#9A979B" stroke-width="0.1">
                    <path d="M833.140863,428.635616 L463.667238,437.17001" id="Path"></path>
                    <path d="M827.547616,404.379811 L463.104093,412.798016" id="Path"></path>
                    <path d="M821.954368,380.124006 L462.540949,388.426021" id="Path"></path>
                    <path d="M816.36112,355.8682 L461.977805,364.054026" id="Path"></path>
                    <path d="M810.767873,331.612395 L461.414661,339.682032" id="Path"></path>
                    <path d="M805.174625,307.356589 L460.851516,315.310037" id="Path"></path>
                    <path d="M799.581377,283.100784 L460.288372,290.938042" id="Path"></path>
                    <path d="M793.98813,258.844979 L459.725228,266.566047" id="Path"></path>
                    <path d="M788.394882,234.589173 L459.162083,242.194053" id="Path"></path>
                    <path d="M782.801634,210.333368 L458.598939,217.822058" id="Path"></path>
                    <path d="M777.208387,186.077563 L458.035795,193.450063" id="Path"></path>
                    <path d="M771.615139,161.821757 L457.47265,169.078069" id="Path"></path>
                    <path d="M766.021891,137.565952 L456.909506,144.706074" id="Path"></path>
                    <path d="M760.428644,113.310146 L456.346362,120.334079" id="Path"></path>
                    <path d="M754.835396,89.0543409 L455.783217,95.9620846" id="Path"></path>
                    <path d="M737.664447,65.0659664 L455.303026,71.5881737" id="Path"></path>
                    <path d="M720.114351,41.0863498 L467.502411,46.9213801" id="Path"></path>
                    <path d="M549.219846,20.6488035 L479.701797,22.2545864" id="Path"></path>
                    <path d="M408.608432,50.2829416 L420.024942,544.371444" id="Path"></path>
                    <path d="M394.109385,591.101326 L380.66615,9.29941361" id="Path"></path>
                    <path d="M367.128478,591.724552 L353.628777,7.47887988" id="Path"></path>
                    <path d="M340.147571,592.347779 L326.591405,5.65834615" id="Path"></path>
                    <path d="M313.166664,592.971005 L299.554032,3.83781243" id="Path"></path>
                    <path d="M286.185757,593.594231 L272.516659,2.0172787" id="Path"></path>
                    <path d="M259.20485,594.217457 L245.490138,0.66643691" id="Path"></path>
                    <path d="M232.223943,594.840684 L218.96295,20.9258675" id="Path"></path>
                    <path d="M205.243036,595.46391 L192.601476,48.357198" id="Path"></path>
                    <path d="M178.262129,596.087136 L166.462563,85.4205779" id="Path"></path>
                    <path d="M151.141002,590.641851 L140.32365,122.483958" id="Path"></path>
                    <path d="M123.77503,574.600054 L114.184736,159.547338" id="Path"></path>
                    <path d="M95.7585363,530.404733 L88.0458232,196.610718" id="Path"></path>
                    <path d="M67.5473721,477.784372 L61.9069099,233.674098" id="Path"></path>
                    <path d="M39.3362079,425.164011 L35.7679967,270.737478" id="Path"></path>
                    <path d="M11.1250437,372.54365 L10.0961305,328.013914" id="Path"></path>
                </g>
                <g id="Group" transform="translate(1886.885607, 4271.562880)" fill-rule="nonzero" stroke-width="0.1">
                    <path d="M92.310263,708.238444 L45.501541,432.499783" id="Path" stroke="#9A979B" fill="#000000"></path>
                    <path d="M123.603979,730.29097 L69.8810214,413.822251" id="Path" stroke="#9A979B" fill="#000000"></path>
                    <path d="M150.891048,728.74133 L94.2605018,395.144719" id="Path" stroke="#9A979B" fill="#000000"></path>
                    <path d="M177.833312,725.160525 L120.709076,388.655708" id="Path" stroke="#9A979B" fill="#000000"></path>
                    <path d="M204.775576,721.579721 L147.487758,384.111283" id="Path" stroke="#9A979B" fill="#000000"></path>
                    <path d="M231.71784,717.998916 L174.26644,379.566858" id="Path" stroke="#9A979B" fill="#000000"></path>
                    <path d="M258.660104,714.418111 L201.045122,375.022433" id="Path" stroke="#9A979B" fill="#000000"></path>
                    <path d="M285.602368,710.837306 L227.823805,370.478008" id="Path" stroke="#9A979B" fill="#000000"></path>
                    <path d="M312.544632,707.256501 L254.602487,365.933584" id="Path" stroke="#9A979B" fill="#000000"></path>
                    <path d="M339.486896,703.675696 L281.381169,361.389159" id="Path" stroke="#9A979B" fill="#000000"></path>
                    <path d="M366.42916,700.094891 L308.159851,356.844734" id="Path" stroke="#9A979B" fill="#000000"></path>
                    <path d="M393.371424,696.514086 L334.938533,352.300309" id="Path" stroke="#9A979B" fill="#000000"></path>
                    <path d="M419.30766,687.007019 L361.717215,347.755884" id="Path" stroke="#9A979B" fill="#000000"></path>
                    <path d="M444.298517,671.930954 L388.495898,343.211459" id="Path" stroke="#9A979B" fill="#000000"></path>
                    <path d="M468.443229,651.870462 L415.27458,338.667034" id="Path" stroke="#9A979B" fill="#000000"></path>
                    <path d="M490.648439,620.384834 L442.053262,334.122609" id="Path" stroke="#9A979B" fill="#000000"></path>
                    <path d="M512.853648,588.899206 L468.831944,329.578184" id="Path" stroke="#9A979B" fill="#000000"></path>
                    <path d="M535.058857,557.413577 L495.610626,325.033759" id="Path" stroke="#9A979B" fill="#000000"></path>
                    <path d="M557.264066,525.927949 L522.389309,320.489335" id="Path" stroke="#9A979B" fill="#000000"></path>
                    <path d="M579.469276,494.442321 L549.167991,315.94491" id="Path" stroke="#9A979B" fill="#000000"></path>
                    <path d="M601.674485,462.956692 L575.946673,311.400485" id="Path" stroke="#9A979B" fill="#000000"></path>
                    <path d="M623.865391,431.386811 L602.725355,306.85606" id="Path" stroke="#9A979B" fill="#000000"></path>
                    <path d="M645.09536,394.156279 L630.267682,306.810079" id="Path" stroke="#9A979B" fill="#000000"></path>
                    <path d="M656.860991,250.91015 L70.2304988,350.463152" id="Path" stroke="#9A979B" fill="#000000"></path>
                    <path d="M22.9886264,335.815161 L681.17858,224.118298" id="Path" stroke="#9A979B" fill="#000000"></path>
                    <path d="M19.2487958,313.784739 L686.083661,200.620807" id="Path" stroke="#9A979B" fill="#000000"></path>
                    <path d="M15.5089651,291.754317 L690.988743,177.123317" id="Path" stroke="#9A979B" fill="#000000"></path>
                    <path d="M11.7691345,269.723896 L673.872293,157.362949" id="Path" stroke="#9A979B" fill="#000000"></path>
                    <path d="M8.02930387,247.693474 L647.547678,139.165235" id="Path" stroke="#9A979B" fill="#000000"></path>
                    <path d="M4.28947323,225.663052 L615.090448,122.008244" id="Path" stroke="#9A979B" fill="#000000"></path>
                    <path d="M0.549642597,203.63263 L582.633219,104.851253" id="Path" stroke="#9A979B" fill="#000000"></path>
                    <path d="M20.8533224,177.52195 L550.175989,87.6942624" id="Path" stroke="#9A979B" fill="#000000"></path>
                    <path d="M62.083265,147.860019 L517.71876,70.5372716" id="Path" stroke="#9A979B" fill="#000000"></path>
                    <path d="M123.35134,114.797556 L485.26153,53.3802809" id="Path" stroke="#9A979B" fill="#000000"></path>
                    <path d="M184.619415,81.7350918 L452.804301,36.2232901" id="Path" stroke="#9A979B" fill="#000000"></path>
                    <path d="M245.88749,48.672628 L420.347071,19.0662994" id="Path" stroke="#9A979B" fill="#000000"></path>
                    <path d="M307.155564,15.6101643 L366.609648,5.52062311" id="Path" stroke="#9A979B" fill="#000000"></path>
                    <polygon id="Path" stroke="#130F26" fill="#9A979B" points="573.727138 267.354219 551.564488 271.115289 528.210055 275.078608 524.782439 254.887366 519.368277 222.993868 542.72271 219.030549 564.885359 215.269479 561.147111 193.248379 586.259349 188.986755 589.997597 211.007855 595.41176 242.901352 570.299522 247.162976"></polygon>
                </g>
                <g id="Group" transform="translate(1574.323914, 3531.129351)" fill="#000000" fill-rule="nonzero" stroke="#9A979B" stroke-width="0.1">
                    <path d="M369.414051,845.563741 L384.072811,568.909769" id="Path"></path>
                    <path d="M403.981222,826.910049 L417.557621,570.683422" id="Path"></path>
                    <path d="M438.548392,808.256356 L451.04243,572.457076" id="Path"></path>
                    <path d="M473.115563,789.602663 L484.52724,574.230729" id="Path"></path>
                    <path d="M507.682734,770.948971 L518.012049,576.004383" id="Path"></path>
                    <path d="M542.249905,752.295278 L551.496859,577.778036" id="Path"></path>
                    <path d="M576.817076,733.641586 L584.981668,579.55169" id="Path"></path>
                    <path d="M611.384247,714.987893 L618.211681,586.134098" id="Path"></path>
                    <path d="M646.441762,687.079959 L651.397691,593.54698" id="Path"></path>
                    <path d="M658.485458,348.75546 L649.199023,524.017828" id="Path"></path>
                    <path d="M635.552174,273.063914 L621.33761,541.33459" id="Path"></path>
                    <path d="M609.257941,260.803356 L594.46915,539.911397" id="Path"></path>
                    <path d="M582.963709,248.542799 L567.60069,538.488204" id="Path"></path>
                    <path d="M556.669476,236.282241 L540.732229,537.065012" id="Path"></path>
                    <path d="M530.375244,224.021683 L513.863769,535.641819" id="Path"></path>
                    <path d="M504.081011,211.761126 L486.995309,534.218626" id="Path"></path>
                    <path d="M477.786779,199.500568 L460.126849,532.795433" id="Path"></path>
                    <path d="M434.610718,505.849807 L450.160637,212.377059" id="Path"></path>
                    <path d="M25.3365538,477.701787 L384.441833,496.723199" id="Path"></path>
                    <path d="M11.3343681,450.91825 L390.286081,470.990905" id="Path"></path>
                    <path d="M11.9149953,424.907147 L391.66207,445.021932" id="Path"></path>
                    <path d="M12.4956225,398.896045 L393.03806,419.052959" id="Path"></path>
                    <path d="M13.0762497,372.884942 L394.414049,393.083986" id="Path"></path>
                    <path d="M13.6568769,346.87384 L395.790039,367.115013" id="Path"></path>
                    <path d="M14.2375041,320.862737 L397.166028,341.14604" id="Path"></path>
                    <path d="M14.8181313,294.851635 L398.542018,315.177067" id="Path"></path>
                    <path d="M15.3987585,268.840533 L399.918007,289.208094" id="Path"></path>
                    <path d="M15.9793857,242.82943 L401.293996,263.239121" id="Path"></path>
                    <path d="M16.5600129,216.818328 L402.669986,237.270148" id="Path"></path>
                    <path d="M17.1406401,190.807225 L404.045975,211.301175" id="Path"></path>
                    <path d="M17.7212673,164.796123 L392.473893,184.646357" id="Path"></path>
                </g>
            </g>
        </g>
    </g>
</svg>