<?xml version="1.0" encoding="UTF-8"?>
<svg width="841px" height="1189px" viewBox="0 0 841 1189" version="1.1" xmlns="http://www.w3.org/2000/svg" xmlns:xlink="http://www.w3.org/1999/xlink">
    <!-- Generator: Sketch 55.1 (78136) - https://sketchapp.com -->
    <title>Citylab Logo A0</title>
    <desc>Created with Sketch.</desc>
    <g id="Citylab-Logo-A0" stroke="none" stroke-width="1" fill="none" fill-rule="evenodd">
        <path d="M452.011153,428.377078 C446.590734,437.730771 439.663686,442.356856 426.010348,442.356856 C409.749089,442.356856 398.504826,431.09143 398.504826,411.378373 C398.504826,391.665314 409.246243,380.702548 427.817154,380.702548 C440.466712,380.702548 448.196784,386.435828 452.514,395.990655 L437.856879,403.131874 C436.25083,397.599728 433.740421,394.080839 427.415641,394.080839 C419.0833,394.080839 413.964971,400.718265 413.964971,411.780641 C413.964971,422.643798 418.582365,428.978565 427.817154,428.978565 C432.535883,428.978565 436.753676,426.264212 438.860661,420.833591 L452.011153,428.377078 Z" id="Fill-1" stroke="#979797" fill-rule="nonzero" transform="translate(425.509413, 411.529702) rotate(-270.000000) translate(-425.509413, -411.529702) "></path>
        <polygon id="Fill-3-path" stroke="#979797" fill-rule="nonzero" transform="translate(418.617530, 453.430545) rotate(-270.000000) translate(-418.617530, -453.430545) " points="411.281474 476.595138 425.953585 476.595138 425.953585 430.265952 411.281474 430.265952"></polygon>
        <path d="M455.621665,445.306224 C460.776067,445.306224 464.642813,448.014394 464.642813,453.631268 C464.642813,459.045698 460.776067,461.85318 455.621665,461.85318 C450.863754,461.85318 446.896942,459.045698 446.896942,453.631268 C446.896942,448.014394 450.863754,445.306224 455.621665,445.306224 L455.621665,445.306224 Z" id="Fill-3-path" stroke="#979797" fill-rule="nonzero" transform="translate(455.769877, 453.579702) rotate(-270.000000) translate(-455.769877, -453.579702) "></path>
        <path d="M443.256605,513.304019 C439.043371,515.422427 434.02989,516.427902 428.013713,516.427902 C418.586459,516.427902 412.169203,512.095145 412.169203,500.812323 L412.169203,480.159769 L405.450183,480.159769 L405.450183,468.67163 L412.268518,468.67163 L412.268518,458.799161 L427.110331,457.08563 L427.110331,468.67163 L440.850134,468.67163 L440.850134,480.159769 L427.011017,480.159769 L427.011017,497.385262 C427.011017,502.222676 428.917094,503.734727 432.526802,503.734727 C435.433665,503.734727 438.042585,502.625634 440.74891,500.712543 L443.256605,513.304019 Z" id="Fill-5" stroke="#979797" fill-rule="nonzero" transform="translate(424.353394, 486.756766) rotate(-270.000000) translate(-424.353394, -486.756766) "></path>
        <path d="M405.230616,518.979951 C407.747008,528.090957 408.251437,534.163676 408.251437,534.163676 L408.654212,534.163676 C408.654212,534.163676 409.156723,527.988781 411.876421,518.979951 L417.919981,499.140474 L433.630166,499.140474 L414.797507,550.157097 C409.36003,564.833798 402.813959,566.960214 392.74264,566.960214 C389.923207,566.960214 386.599345,566.45319 383.981301,565.847846 L386.298222,552.485936 C388.009062,553.598304 390.226248,554.205576 392.441517,554.205576 C396.469277,554.205576 399.087321,552.686433 400.698426,548.537706 L383.47879,499.140474 L399.793139,499.140474 L405.230616,518.979951 Z" id="Fill-6" stroke="#979797" fill-rule="nonzero" transform="translate(408.554478, 533.050344) rotate(-270.000000) translate(-408.554478, -533.050344) "></path>
        <polygon id="Fill-7" stroke="#979797" fill-rule="nonzero" transform="translate(425.124073, 584.359060) rotate(-270.000000) translate(-425.124073, -584.359060) " points="421.621136 554.687923 421.621136 600.932144 443.641504 600.932144 443.641504 614.030196 406.606642 614.030196 406.606642 554.687923"></polygon>
        <path d="M423.444532,648.125263 L436.678003,648.125263 L435.061819,643.592946 C431.525453,633.718558 430.313315,626.261917 430.313315,626.261917 L429.909269,626.261917 C429.909269,626.261917 428.395058,633.818338 425.060716,643.491247 L423.444532,648.125263 Z" id="Fill-8-path" stroke="#979797" fill-rule="nonzero" transform="translate(430.061267, 637.193590) rotate(-270.000000) translate(-430.061267, -637.193590) "></path>
        <polygon id="Fill-8-path" stroke="#979797" fill-rule="nonzero" transform="translate(425.124073, 637.596674) rotate(-270.000000) translate(-425.124073, -637.596674) " points="435.782231 656.184548 413.859846 656.184548 410.123382 667.26781 394.261688 667.26781 415.780027 607.925538 434.26802 607.925538 455.986458 667.26781 439.722642 667.26781"></polygon>
        <path d="M405.608048,706.021127 L415.101098,706.021127 C419.546577,706.021127 422.172315,704.812253 422.172315,700.278017 C422.172315,696.549697 419.546577,694.736386 415.101098,694.736386 L405.608048,694.736386 L405.608048,706.021127 Z" id="Fill-9-path" stroke="#979797" fill-rule="nonzero" transform="translate(413.890182, 700.378757) rotate(-270.000000) translate(-413.890182, -700.378757) "></path>
        <path d="M436.611295,705.060867 C440.750919,705.060867 443.378579,703.550735 443.378579,699.419456 C443.378579,694.986919 440.85287,693.474867 436.307364,693.474867 L429.036091,693.474867 L429.036091,705.060867 L436.611295,705.060867 Z" id="Fill-9-path" stroke="#979797" fill-rule="nonzero" transform="translate(436.207335, 699.267867) rotate(-270.000000) translate(-436.207335, -699.267867) "></path>
        <path d="M435.527956,699.924237 C444.415066,701.23481 448.656642,706.97792 448.656642,714.031603 C448.656642,723.702594 442.093261,730.149921 427.548793,730.149921 L401.591504,730.149921 L401.591504,670.807648 L427.750772,670.807648 C439.769531,670.807648 446.132857,676.450978 446.132857,685.719011 C446.132857,693.073952 441.991309,697.807749 435.527956,699.521279 L435.527956,699.924237 Z" id="Fill-9-path" stroke="#979797" fill-rule="nonzero" transform="translate(425.124073, 700.478784) rotate(-270.000000) translate(-425.124073, -700.478784) "></path>
        <path d="M435.906819,789.419929 C440.014827,789.419929 443.62102,787.909796 443.62102,782.972602 C443.62102,779.244282 441.516453,777.833929 437.610698,777.833929 L430.797091,777.833929 L428.793651,789.419929 L435.906819,789.419929 Z" id="Fill-10-path" stroke="#979797" fill-rule="nonzero" transform="translate(436.207335, 783.626929) rotate(-270.000000) translate(-436.207335, -783.626929) "></path>
        <path d="M405.174261,786.663873 L414.59234,786.663873 C419.299472,786.663873 422.606103,784.848644 422.606103,780.214627 C422.606103,777.192443 421.003351,775.379132 416.595781,775.379132 L407.177701,775.379132 L405.174261,786.663873 Z" id="Fill-10-path" stroke="#979797" fill-rule="nonzero" transform="translate(413.890182, 781.021502) rotate(-270.000000) translate(-413.890182, -781.021502) "></path>
        <path d="M437.246798,780.066659 C445.861593,781.377232 448.96788,786.817164 448.96788,792.558355 C448.96788,804.649012 439.450582,810.392122 425.023901,810.392122 L399.276825,810.392122 L409.597408,751.04985 L434.041292,751.04985 C446.163063,751.04985 450.971321,756.591481 450.971321,764.349381 C450.971321,773.314235 444.760654,778.656306 437.347924,779.661782 L437.246798,780.066659 Z" id="Fill-10-path" stroke="#979797" fill-rule="nonzero" transform="translate(425.124073, 780.720986) rotate(-270.000000) translate(-425.124073, -780.720986) "></path>
        <path d="M434.41144,840.664248 C434.513104,840.063654 434.612848,839.362008 434.612848,838.55931 C434.612848,835.256997 433.504146,832.654424 429.577651,832.654424 C425.547575,832.654424 423.132599,836.359039 422.023897,840.664248 L434.41144,840.664248 Z" id="Fill-11-path" stroke="#979797" fill-rule="nonzero" transform="translate(428.318373, 836.659336) rotate(-270.000000) translate(-428.318373, -836.659336) "></path>
        <path d="M425.202287,842.561081 L439.504164,845.964446 C436.7842,855.373749 430.339147,859.778104 417.245716,859.778104 C403.851133,859.778104 396.197633,851.968478 396.197633,839.655351 C396.197633,821.336286 408.483514,811.225336 421.97976,811.225336 C435.476007,811.225336 441.719652,819.334306 441.719652,828.041964 C441.719652,831.748486 441.013765,835.350142 439.705572,837.954622 L412.210519,837.954622 C411.002072,844.061613 413.518711,848.366822 418.454164,848.366822 C421.878098,848.366822 424.195248,846.96353 425.202287,842.561081 L425.202287,842.561081 Z" id="Fill-11-path" stroke="#979797" fill-rule="nonzero" transform="translate(418.958642, 835.501720) rotate(-270.000000) translate(-418.958642, -835.501720) "></path>
        <path d="M435.875841,877.155274 C429.223548,873.620436 420.15032,874.632038 418.437811,884.424963 L414.505951,906.843682 L399.283431,906.843682 L407.448569,860.190744 L420.755074,860.190744 L420.453657,873.016552 C423.677091,863.421717 431.439059,857.363643 439.404532,859.484931 L435.875841,877.155274 Z" id="Fill-12" stroke="#979797" fill-rule="nonzero" transform="translate(419.343982, 882.952638) rotate(-270.000000) translate(-419.343982, -882.952638) "></path>
        <path d="M432.166819,934.099941 C431.75997,936.316712 431.963394,938.230236 435.014763,938.230236 C435.929205,938.230236 436.845584,938.030631 438.066132,937.727384 L435.625037,949.114482 C433.083198,949.920581 430.130636,950.425351 427.588798,950.425351 C418.332011,950.425351 414.670369,945.790286 416.197023,936.819564 L425.961401,882.605612 L441.322862,882.605612 L432.166819,934.099941 Z" id="Fill-13" stroke="#979797" fill-rule="nonzero" transform="translate(428.592128, 916.515482) rotate(-270.000000) translate(-428.592128, -916.515482) "></path>
        <path d="M456.358193,941.324358 C461.549497,941.324358 465.443926,944.043047 465.443926,949.679823 C465.443926,955.115285 461.549497,957.93559 456.358193,957.93559 C451.56432,957.93559 447.57291,955.115285 447.57291,949.679823 C447.57291,944.043047 451.56432,941.324358 456.358193,941.324358 L456.358193,941.324358 Z" id="Fill-14-path" stroke="#979797" fill-rule="nonzero" transform="translate(456.508418, 949.629974) rotate(-270.000000) translate(-456.508418, -949.629974) "></path>
        <path d="M424.065285,951.97182 C423.665954,954.186267 423.86562,956.097786 426.862504,956.097786 C427.760049,956.097786 428.659494,955.89839 429.857487,955.595462 L427.459599,966.970628 C424.964731,967.775882 422.068629,968.280124 419.573761,968.280124 C410.486128,968.280124 406.89405,963.649915 408.39059,954.688592 L414.279773,921.266732 L429.357373,921.266732 L424.065285,951.97182 Z" id="Fill-14-path" stroke="#979797" fill-rule="nonzero" transform="translate(418.959633, 944.773428) rotate(-270.000000) translate(-418.959633, -944.773428) "></path>
        <path d="M439.312687,996.739234 C438.90727,998.938146 439.109979,1000.83626 442.150603,1000.83626 C443.061826,1000.83626 443.974979,1000.63826 445.191229,1000.33745 L442.758728,1011.63282 C440.22584,1012.43243 437.283673,1012.93313 434.750783,1012.93313 C425.526587,1012.93313 421.877836,1008.33541 423.399114,999.436947 L425.932003,985.04216 C426.642448,980.844236 425.831615,977.445916 421.169322,977.445916 C417.518641,977.445916 414.478015,980.646238 413.159446,987.941679 L408.800251,1012.43243 L393.496734,1012.43243 L401.707388,966.249547 L415.08614,966.249547 L415.288849,975.646805 C418.229086,968.850166 422.383642,965.151042 430.188879,965.151042 C437.5887,965.151042 442.250993,969.849672 442.250993,976.947115 C442.250993,978.54442 442.150603,979.644829 441.947895,980.844236 L439.312687,996.739234 Z" id="Fill-15" stroke="#979797" fill-rule="nonzero" transform="translate(419.343982, 989.042087) rotate(-270.000000) translate(-419.343982, -989.042087) "></path>
        <polygon id="Fill-16" stroke="#979797" fill-rule="nonzero" transform="translate(445.547063, 279.978784) rotate(-270.000000) translate(-445.547063, -279.978784) " points="431.260999 339.321057 403.497063 323.536991 404.025569 252.984858 460.699182 220.636512 487.597063 235.982662 487.487118 306.984184"></polygon>
        <polygon id="Fill-17" stroke="#979797" fill-rule="nonzero" transform="translate(428.206789, 207.452179) rotate(-270.000000) translate(-428.206789, -207.452179) " points="461.769633 154.507624 452.82515 159.667385 452.591882 191.045556 420.844512 209.362421 420.421953 266.409111 394.643945 251.596592 395.167841 180.906136 451.345237 148.495247"></polygon>
        <polygon id="Fill-18" stroke="#979797" fill-rule="nonzero" transform="translate(386.590130, 247.959060) rotate(-270.000000) translate(-386.590130, -247.959060) " points="370.845298 197.479594 370.554542 236.708465 404.471638 256.151742 428.25435 242.35958 428.219919 266.10191 372.457847 298.438525 344.92591 282.653652 345.450036 212.097909"></polygon>
    </g>
</svg>